<?xml version="1.0" encoding="UTF-8"?>
<svg id="Capa_1" data-name="Capa 1" xmlns="http://www.w3.org/2000/svg" viewBox="0 0 882.95 292.61">
  <defs>
    <style>
      .cls-1 {
        fill: #3a5ba6;
      }

      .cls-2 {
        fill: #fff;
      }

      .cls-2, .cls-3 {
        stroke: #3a5ba6;
        stroke-miterlimit: 10;
        stroke-width: 4px;
      }

      .cls-3 {
        fill: none;
      }
    </style>
  </defs>
  <g>
    <path class="cls-1" d="M355.84,103.03v-14.02c2.54,2.13,5.3,3.73,8.28,4.8,2.98,1.07,5.99,1.6,9.03,1.6,1.78,0,3.34-.16,4.67-.48s2.44-.77,3.33-1.34c.89-.57,1.56-1.24,2-2.02.44-.77.66-1.61.66-2.52,0-1.23-.35-2.32-1.05-3.29-.7-.96-1.66-1.85-2.87-2.67-1.21-.82-2.65-1.61-4.32-2.37-1.67-.76-3.46-1.53-5.39-2.32-4.91-2.04-8.57-4.54-10.98-7.49-2.41-2.95-3.62-6.51-3.62-10.69,0-3.27.66-6.08,1.97-8.44,1.31-2.35,3.1-4.29,5.37-5.81,2.26-1.52,4.89-2.64,7.86-3.35,2.98-.72,6.13-1.07,9.46-1.07s6.17.2,8.7.59c2.53.4,4.86,1,6.99,1.82v13.1c-1.05-.73-2.2-1.37-3.44-1.93-1.24-.55-2.52-1.01-3.84-1.38-1.31-.36-2.62-.64-3.92-.81s-2.53-.26-3.7-.26c-1.61,0-3.07.15-4.38.46-1.32.31-2.43.74-3.33,1.29-.91.55-1.61,1.22-2.1,1.99-.5.77-.75,1.64-.75,2.61,0,1.05.28,1.99.83,2.82.56.83,1.35,1.62,2.37,2.37,1.02.75,2.26,1.48,3.72,2.19,1.46.72,3.11,1.45,4.95,2.21,2.51,1.05,4.77,2.17,6.77,3.35,2,1.18,3.72,2.52,5.15,4.01,1.43,1.49,2.53,3.19,3.29,5.11.76,1.91,1.14,4.14,1.14,6.68,0,3.51-.66,6.45-1.99,8.83-1.33,2.38-3.13,4.31-5.41,5.78-2.28,1.48-4.93,2.53-7.95,3.18-3.02.64-6.21.97-9.57.97s-6.73-.29-9.84-.88c-3.11-.58-5.81-1.46-8.08-2.63Z"/>
    <path class="cls-1" d="M411.88,103.03v-14.02c2.54,2.13,5.3,3.73,8.28,4.8s5.99,1.6,9.03,1.6c1.78,0,3.34-.16,4.67-.48s2.44-.77,3.33-1.34c.89-.57,1.56-1.24,2-2.02.44-.77.66-1.61.66-2.52,0-1.23-.35-2.32-1.05-3.29-.7-.96-1.66-1.85-2.87-2.67-1.21-.82-2.65-1.61-4.32-2.37s-3.46-1.53-5.39-2.32c-4.91-2.04-8.57-4.54-10.98-7.49-2.41-2.95-3.62-6.51-3.62-10.69,0-3.27.66-6.08,1.97-8.44,1.31-2.35,3.1-4.29,5.37-5.81,2.26-1.52,4.89-2.64,7.86-3.35,2.98-.72,6.13-1.07,9.46-1.07s6.17.2,8.7.59c2.53.4,4.86,1,6.99,1.82v13.1c-1.05-.73-2.2-1.37-3.44-1.93-1.24-.55-2.52-1.01-3.84-1.38-1.31-.36-2.62-.64-3.92-.81s-2.53-.26-3.7-.26c-1.61,0-3.07.15-4.38.46-1.32.31-2.43.74-3.33,1.29-.91.55-1.61,1.22-2.1,1.99-.5.77-.75,1.64-.75,2.61,0,1.05.28,1.99.83,2.82.56.83,1.35,1.62,2.37,2.37,1.02.75,2.26,1.48,3.72,2.19,1.46.72,3.11,1.45,4.95,2.21,2.51,1.05,4.77,2.17,6.77,3.35,2,1.18,3.72,2.52,5.15,4.01,1.43,1.49,2.53,3.19,3.29,5.11s1.14,4.14,1.14,6.68c0,3.51-.66,6.45-1.99,8.83-1.33,2.38-3.13,4.31-5.41,5.78s-4.93,2.53-7.95,3.18c-3.02.64-6.21.97-9.57.97s-6.73-.29-9.84-.88c-3.11-.58-5.81-1.46-8.08-2.63Z"/>
    <path class="cls-1" d="M470.82,105.44v-62.83h22.26c22.32,0,33.48,10.21,33.48,30.63,0,9.78-3.04,17.6-9.14,23.44-6.09,5.84-14.2,8.76-24.34,8.76h-22.26ZM484.97,54.13v39.83h7.01c6.13,0,10.95-1.84,14.44-5.52,3.49-3.68,5.24-8.69,5.24-15.03,0-5.99-1.73-10.7-5.19-14.13-3.46-3.43-8.32-5.15-14.57-5.15h-6.93Z"/>
    <path class="cls-1" d="M596.62,105.44h-15.42l-4.47-13.98h-22.34l-4.43,13.98h-15.34l22.87-62.83h16.78l22.35,62.83ZM573.49,80.6l-6.75-21.12c-.5-1.58-.85-3.46-1.05-5.65h-.35c-.14,1.84-.51,3.67-1.09,5.48l-6.84,21.3h16.08Z"/>
    <path class="cls-1" d="M680.59,93.96h26.64v11.48h-41.8v-4.73c0-3.21.54-6.1,1.62-8.65,1.08-2.56,2.44-4.85,4.08-6.88,1.63-2.03,3.42-3.83,5.37-5.39,1.94-1.56,3.79-2.97,5.54-4.23,1.84-1.31,3.45-2.57,4.84-3.77,1.39-1.2,2.56-2.39,3.51-3.57.95-1.18,1.66-2.38,2.13-3.59.47-1.21.7-2.5.7-3.88,0-2.69-.76-4.72-2.28-6.09-1.52-1.37-3.84-2.06-6.97-2.06-5.4,0-10.58,2.15-15.51,6.44v-12.18c5.46-3.53,11.63-5.3,18.49-5.3,3.18,0,6.04.42,8.57,1.25,2.53.83,4.67,2.02,6.42,3.57,1.75,1.55,3.09,3.43,4.01,5.63.92,2.21,1.38,4.67,1.38,7.38,0,2.89-.44,5.46-1.33,7.71-.89,2.25-2.07,4.29-3.55,6.13-1.48,1.84-3.18,3.53-5.11,5.06-1.93,1.53-3.93,3.02-6,4.45-1.4.99-2.75,1.98-4.05,2.96-1.3.98-2.45,1.94-3.44,2.89-.99.95-1.78,1.88-2.36,2.78-.58.91-.88,1.77-.88,2.59Z"/>
    <path class="cls-1" d="M744.61,106.54c-14.96,0-22.43-10.5-22.43-31.51,0-10.9,2.02-19.2,6.07-24.91,4.05-5.71,9.91-8.57,17.59-8.57,14.6,0,21.91,10.68,21.91,32.03,0,10.63-2,18.78-5.98,24.45-3.99,5.67-9.71,8.5-17.15,8.5ZM745.22,52.12c-5.99,0-8.98,7.52-8.98,22.57,0,14.17,2.94,21.25,8.81,21.25s8.59-7.3,8.59-21.91-2.8-21.91-8.41-21.91Z"/>
    <path class="cls-1" d="M795.31,93.96h26.64v11.48h-41.8v-4.73c0-3.21.54-6.1,1.62-8.65,1.08-2.56,2.44-4.85,4.08-6.88,1.63-2.03,3.42-3.83,5.37-5.39,1.94-1.56,3.79-2.97,5.54-4.23,1.84-1.31,3.45-2.57,4.84-3.77,1.39-1.2,2.56-2.39,3.51-3.57.95-1.18,1.66-2.38,2.13-3.59.47-1.21.7-2.5.7-3.88,0-2.69-.76-4.72-2.28-6.09-1.52-1.37-3.84-2.06-6.97-2.06-5.4,0-10.58,2.15-15.51,6.44v-12.18c5.46-3.53,11.63-5.3,18.49-5.3,3.18,0,6.04.42,8.57,1.25,2.53.83,4.67,2.02,6.42,3.57,1.75,1.55,3.09,3.43,4.01,5.63.92,2.21,1.38,4.67,1.38,7.38,0,2.89-.44,5.46-1.33,7.71-.89,2.25-2.07,4.29-3.55,6.13-1.48,1.84-3.18,3.53-5.11,5.06-1.93,1.53-3.93,3.02-6,4.45-1.4.99-2.75,1.98-4.05,2.96-1.3.98-2.45,1.94-3.44,2.89-.99.95-1.78,1.88-2.36,2.78-.58.91-.88,1.77-.88,2.59Z"/>
    <path class="cls-1" d="M882.51,84.54c0,3.1-.54,5.99-1.62,8.68-1.08,2.69-2.59,5.02-4.51,6.99-1.93,1.97-4.22,3.52-6.88,4.64-2.66,1.12-5.57,1.69-8.72,1.69-3.53,0-6.7-.66-9.49-1.97-2.79-1.31-5.15-3.22-7.08-5.72-1.93-2.5-3.4-5.56-4.43-9.18-1.02-3.62-1.53-7.73-1.53-12.31,0-5.4.66-10.3,1.99-14.7,1.33-4.4,3.23-8.16,5.7-11.28,2.47-3.13,5.46-5.54,8.96-7.25,3.51-1.71,7.45-2.56,11.83-2.56,4.85,0,8.62.57,11.3,1.71v11.57c-3.18-1.81-6.66-2.72-10.43-2.72-2.34,0-4.46.45-6.35,1.36-1.9.9-3.53,2.19-4.89,3.86-1.36,1.67-2.43,3.67-3.2,6.02-.77,2.35-1.19,4.97-1.25,7.86h.26c2.98-4.12,7.38-6.18,13.19-6.18,2.6,0,4.95.47,7.06,1.4,2.1.94,3.9,2.26,5.39,3.97,1.49,1.71,2.65,3.76,3.46,6.16.82,2.39,1.23,5.05,1.23,7.97ZM868.97,85.42c0-6.75-2.76-10.12-8.28-10.12-1.26,0-2.39.23-3.42.7s-1.9,1.12-2.63,1.97c-.73.85-1.29,1.85-1.69,3-.39,1.16-.59,2.43-.59,3.84,0,1.55.2,2.99.61,4.34.41,1.34.99,2.52,1.73,3.53.75,1.01,1.63,1.8,2.65,2.39,1.02.58,2.16.88,3.42.88s2.39-.25,3.4-.77c1.01-.51,1.87-1.23,2.59-2.15.72-.92,1.26-2.03,1.64-3.33s.57-2.72.57-4.27Z"/>
  </g>
  <g>
    <path class="cls-1" d="M383.08,179.63c0-2-.72-3.68-2.15-5.03-1.44-1.35-3.96-2.51-7.58-3.46-4.49-1.11-7.99-2.75-10.5-4.91-2.52-2.16-3.77-4.88-3.77-8.15,0-3.46,1.35-6.34,4.06-8.64,2.71-2.3,6.22-3.46,10.55-3.46,4.65,0,8.35,1.32,11.11,3.96s4.1,5.71,4.02,9.23l-.09.18h-5.7c0-2.51-.87-4.58-2.62-6.21-1.75-1.64-3.99-2.46-6.71-2.46s-4.93.68-6.41,2.03c-1.49,1.35-2.23,3.11-2.23,5.27,0,1.92.81,3.52,2.44,4.8,1.63,1.28,4.27,2.41,7.93,3.38,4.45,1.15,7.83,2.85,10.15,5.09,2.32,2.24,3.49,5.01,3.49,8.3,0,3.56-1.4,6.42-4.2,8.58-2.8,2.16-6.45,3.24-10.96,3.24-4.26,0-8.03-1.19-11.29-3.58s-4.85-5.58-4.74-9.58l.06-.18h5.7c0,2.77,1.05,4.91,3.15,6.41,2.1,1.51,4.48,2.26,7.12,2.26,2.83,0,5.07-.64,6.71-1.91,1.65-1.27,2.47-3,2.47-5.18Z"/>
    <path class="cls-1" d="M417.01,185.91c-1.03,1.76-2.35,3.11-3.97,4.06-1.62.95-3.49,1.42-5.61,1.42-3.58,0-6.37-1.14-8.37-3.43-2-2.28-3-5.84-3-10.67v-19.34h5.97v19.4c0,3.5.52,5.9,1.55,7.21s2.64,1.97,4.82,1.97,3.88-.43,5.26-1.29c1.38-.86,2.43-2.08,3.14-3.65v-23.64h5.97v32.8h-5.36l-.39-4.85Z"/>
    <path class="cls-1" d="M436.31,157.96l.42,4.3c1.07-1.56,2.43-2.76,4.08-3.62,1.65-.86,3.56-1.29,5.74-1.29s4.06.51,5.62,1.52c1.57,1.01,2.74,2.53,3.53,4.55,1.05-1.88,2.42-3.36,4.11-4.44,1.69-1.08,3.66-1.62,5.93-1.62,3.33,0,5.97,1.15,7.91,3.44,1.94,2.29,2.91,5.74,2.91,10.35v19.61h-5.97v-19.67c0-3.23-.56-5.52-1.67-6.87-1.11-1.34-2.77-2.02-4.97-2.02-2.04,0-3.69.71-4.96,2.12-1.26,1.41-2.01,3.2-2.23,5.36v21.07h-6v-19.67c0-3.07-.57-5.32-1.71-6.74-1.14-1.43-2.78-2.14-4.93-2.14-1.82,0-3.31.37-4.49,1.12-1.17.75-2.07,1.8-2.7,3.15v24.28h-5.97v-32.8h5.33Z"/>
    <path class="cls-1" d="M490.07,157.96l.42,4.3c1.07-1.56,2.43-2.76,4.08-3.62,1.65-.86,3.56-1.29,5.74-1.29s4.06.51,5.62,1.52c1.57,1.01,2.74,2.53,3.53,4.55,1.05-1.88,2.42-3.36,4.11-4.44,1.69-1.08,3.66-1.62,5.93-1.62,3.33,0,5.97,1.15,7.91,3.44,1.94,2.29,2.91,5.74,2.91,10.35v19.61h-5.97v-19.67c0-3.23-.56-5.52-1.67-6.87-1.11-1.34-2.77-2.02-4.97-2.02-2.04,0-3.69.71-4.96,2.12-1.26,1.41-2.01,3.2-2.23,5.36v21.07h-6v-19.67c0-3.07-.57-5.32-1.71-6.74-1.14-1.43-2.78-2.14-4.93-2.14-1.82,0-3.31.37-4.49,1.12-1.17.75-2.07,1.8-2.7,3.15v24.28h-5.97v-32.8h5.33Z"/>
    <path class="cls-1" d="M552.08,191.39c-4.71,0-8.38-1.51-11.02-4.52-2.64-3.01-3.96-6.97-3.96-11.88v-1.33c0-4.71,1.36-8.6,4.08-11.69,2.72-3.08,6.04-4.62,9.96-4.62,4.39,0,7.67,1.36,9.87,4.09,2.19,2.73,3.29,6.36,3.29,10.88v3.15h-20.98l-.09.15c0,3.29.73,5.97,2.18,8.02,1.45,2.05,3.68,3.08,6.67,3.08,2.02,0,3.79-.29,5.32-.86,1.53-.58,2.83-1.37,3.93-2.38l2.33,3.88c-1.17,1.13-2.72,2.09-4.64,2.86-1.92.78-4.23,1.17-6.94,1.17ZM551.14,162.05c-2.08,0-3.8.8-5.17,2.41-1.36,1.61-2.2,3.66-2.5,6.17l.06.15h14.79v-.49c0-2.38-.59-4.35-1.76-5.91-1.17-1.56-2.98-2.33-5.43-2.33Z"/>
    <path class="cls-1" d="M586.02,163.23l-3.06-.18c-1.58,0-2.9.37-3.99,1.12s-1.91,1.8-2.5,3.15v23.43h-5.97v-32.8h5.33l.58,4.79c.93-1.7,2.08-3.02,3.44-3.97,1.36-.95,2.94-1.42,4.71-1.42.44,0,.87.04,1.27.11s.74.15,1,.23l-.82,5.55Z"/>
    <path class="cls-1" d="M631.01,179.63c0-2-.72-3.68-2.15-5.03s-3.96-2.51-7.58-3.46c-4.49-1.11-7.99-2.75-10.5-4.91-2.52-2.16-3.77-4.88-3.77-8.15,0-3.46,1.35-6.34,4.06-8.64,2.71-2.3,6.22-3.46,10.55-3.46,4.65,0,8.35,1.32,11.11,3.96s4.1,5.71,4.02,9.23l-.09.18h-5.7c0-2.51-.87-4.58-2.62-6.21s-3.99-2.46-6.71-2.46-4.93.68-6.41,2.03c-1.48,1.35-2.23,3.11-2.23,5.27,0,1.92.81,3.52,2.44,4.8,1.63,1.28,4.27,2.41,7.93,3.38,4.45,1.15,7.83,2.85,10.15,5.09s3.49,5.01,3.49,8.3c0,3.56-1.4,6.42-4.2,8.58-2.8,2.16-6.45,3.24-10.96,3.24-4.26,0-8.03-1.19-11.29-3.58-3.26-2.38-4.85-5.58-4.74-9.58l.06-.18h5.7c0,2.77,1.05,4.91,3.15,6.41,2.1,1.51,4.48,2.26,7.12,2.26,2.83,0,5.07-.64,6.71-1.91,1.65-1.27,2.47-3,2.47-5.18Z"/>
    <path class="cls-1" d="M657.16,186.73c1.84,0,3.45-.61,4.82-1.83,1.37-1.22,2.06-2.72,2.06-4.5h5.4l.09.18c.08,2.83-1.13,5.34-3.64,7.53-2.51,2.19-5.42,3.29-8.73,3.29-4.61,0-8.16-1.57-10.67-4.7s-3.76-7.03-3.76-11.7v-1.27c0-4.63,1.26-8.51,3.77-11.66,2.52-3.14,6.07-4.71,10.66-4.71,3.66,0,6.65,1.13,8.99,3.4,2.33,2.26,3.46,5.04,3.38,8.34l-.06.18h-5.43c0-2-.65-3.7-1.95-5.11s-2.95-2.11-4.93-2.11c-2.93,0-5.07,1.14-6.41,3.41-1.34,2.27-2.02,5.03-2.02,8.26v1.27c0,3.29.66,6.07,1.99,8.34,1.32,2.26,3.47,3.4,6.44,3.4Z"/>
    <path class="cls-1" d="M682.09,162.36c1.13-1.58,2.52-2.8,4.17-3.68,1.65-.88,3.47-1.32,5.47-1.32,3.5,0,6.22,1.05,8.17,3.15,1.95,2.1,2.93,5.33,2.93,9.7v20.55h-5.97v-20.61c0-2.71-.58-4.71-1.74-6-1.16-1.29-2.9-1.94-5.2-1.94-1.78,0-3.32.35-4.64,1.05s-2.38,1.67-3.18,2.93v24.58h-5.97v-47.29h5.97v18.89Z"/>
    <path class="cls-1" d="M709.51,174.06c0-4.85,1.31-8.85,3.94-11.99s6.19-4.71,10.7-4.71,8.14,1.57,10.78,4.7,3.96,7.13,3.96,12v.67c0,4.89-1.31,8.89-3.94,12-2.63,3.11-6.2,4.67-10.73,4.67s-8.11-1.56-10.75-4.68c-2.64-3.12-3.96-7.12-3.96-11.99v-.67ZM715.48,174.72c0,3.48.73,6.35,2.2,8.61,1.47,2.26,3.64,3.4,6.53,3.4s5.01-1.13,6.49-3.4c1.47-2.26,2.21-5.13,2.21-8.61v-.67c0-3.44-.74-6.29-2.23-8.58-1.48-2.28-3.66-3.42-6.53-3.42s-5.01,1.14-6.47,3.42c-1.47,2.28-2.2,5.14-2.2,8.58v.67Z"/>
    <path class="cls-1" d="M744.3,174.06c0-4.85,1.31-8.85,3.94-11.99,2.63-3.14,6.19-4.71,10.7-4.71s8.14,1.57,10.78,4.7,3.96,7.13,3.96,12v.67c0,4.89-1.31,8.89-3.94,12-2.63,3.11-6.2,4.67-10.73,4.67s-8.11-1.56-10.75-4.68c-2.64-3.12-3.96-7.12-3.96-11.99v-.67ZM750.27,174.72c0,3.48.73,6.35,2.2,8.61,1.47,2.26,3.64,3.4,6.53,3.4s5.01-1.13,6.49-3.4c1.47-2.26,2.21-5.13,2.21-8.61v-.67c0-3.44-.74-6.29-2.23-8.58-1.48-2.28-3.66-3.42-6.53-3.42s-5.01,1.14-6.47,3.42c-1.47,2.28-2.2,5.14-2.2,8.58v.67Z"/>
    <path class="cls-1" d="M786.93,190.76h-5.97v-47.29h5.97v47.29Z"/>
    <path class="cls-1" d="M809.16,174.06c0-4.85,1.31-8.85,3.94-11.99s6.19-4.71,10.7-4.71,8.14,1.57,10.78,4.7,3.96,7.13,3.96,12v.67c0,4.89-1.31,8.89-3.94,12-2.63,3.11-6.2,4.67-10.73,4.67s-8.11-1.56-10.75-4.68c-2.64-3.12-3.96-7.12-3.96-11.99v-.67ZM815.13,174.72c0,3.48.73,6.35,2.2,8.61,1.47,2.26,3.64,3.4,6.53,3.4s5.01-1.13,6.49-3.4c1.47-2.26,2.21-5.13,2.21-8.61v-.67c0-3.44-.74-6.29-2.23-8.58-1.48-2.28-3.66-3.42-6.53-3.42s-5.01,1.14-6.47,3.42c-1.47,2.28-2.2,5.14-2.2,8.58v.67Z"/>
    <path class="cls-1" d="M850.67,157.96l.42,4.88c1.09-1.74,2.46-3.09,4.11-4.05,1.65-.96,3.52-1.44,5.62-1.44,3.54,0,6.27,1.04,8.21,3.11,1.94,2.07,2.91,5.27,2.91,9.59v20.7h-5.97v-20.58c0-2.89-.57-4.94-1.71-6.15-1.14-1.21-2.88-1.82-5.23-1.82-1.84,0-3.4.37-4.68,1.11-1.28.74-2.3,1.77-3.05,3.11v24.34h-5.97v-32.8h5.33Z"/>
    <path class="cls-1" d="M359.56,265.25v-44.13h13.88c5.76,0,10.39,1.77,13.9,5.32,3.51,3.55,5.26,8.13,5.26,13.75v6.03c0,5.64-1.75,10.22-5.26,13.75-3.51,3.53-8.14,5.29-13.9,5.29h-13.88ZM365.53,225.82v34.77h7.91c4.08,0,7.3-1.34,9.65-4.03,2.35-2.69,3.53-6.13,3.53-10.34v-6.09c0-4.16-1.18-7.59-3.53-10.28-2.35-2.69-5.57-4.03-9.65-4.03h-7.91Z"/>
    <path class="cls-1" d="M398.89,248.55c0-4.85,1.31-8.85,3.94-11.99,2.63-3.14,6.19-4.71,10.7-4.71s8.14,1.57,10.78,4.7c2.64,3.13,3.96,7.13,3.96,12v.67c0,4.89-1.31,8.89-3.94,12-2.63,3.11-6.2,4.67-10.73,4.67s-8.11-1.56-10.75-4.68c-2.64-3.12-3.96-7.12-3.96-11.99v-.67ZM404.86,249.22c0,3.48.73,6.35,2.2,8.61,1.47,2.26,3.64,3.4,6.53,3.4s5.01-1.13,6.49-3.4c1.47-2.26,2.21-5.13,2.21-8.61v-.67c0-3.44-.74-6.29-2.23-8.58-1.49-2.28-3.66-3.42-6.53-3.42s-5.01,1.14-6.47,3.42c-1.47,2.28-2.2,5.14-2.2,8.58v.67Z"/>
    <path class="cls-1" d="M448.1,261.22c1.84,0,3.45-.61,4.82-1.83,1.37-1.22,2.06-2.72,2.06-4.5h5.4l.09.18c.08,2.83-1.13,5.34-3.64,7.53s-5.42,3.29-8.73,3.29c-4.61,0-8.16-1.57-10.67-4.7s-3.76-7.03-3.76-11.7v-1.27c0-4.63,1.26-8.51,3.77-11.66,2.52-3.14,6.07-4.71,10.66-4.71,3.66,0,6.65,1.13,8.99,3.4s3.46,5.04,3.38,8.34l-.06.18h-5.43c0-2-.65-3.7-1.95-5.11s-2.95-2.11-4.93-2.11c-2.93,0-5.07,1.14-6.41,3.41-1.34,2.27-2.02,5.03-2.02,8.26v1.27c0,3.29.66,6.07,1.99,8.34,1.32,2.26,3.47,3.4,6.44,3.4Z"/>
    <path class="cls-1" d="M487.89,260.4c-1.03,1.76-2.35,3.11-3.97,4.06-1.62.95-3.49,1.42-5.61,1.42-3.58,0-6.37-1.14-8.37-3.43-2-2.28-3-5.84-3-10.67v-19.34h5.97v19.4c0,3.5.51,5.9,1.55,7.21,1.03,1.31,2.64,1.97,4.82,1.97s3.88-.43,5.26-1.29c1.38-.86,2.43-2.08,3.14-3.65v-23.64h5.97v32.8h-5.36l-.39-4.85Z"/>
    <path class="cls-1" d="M507.19,232.45l.42,4.3c1.07-1.56,2.43-2.76,4.08-3.62,1.65-.86,3.56-1.29,5.74-1.29s4.06.51,5.62,1.52,2.74,2.53,3.53,4.55c1.05-1.88,2.42-3.36,4.11-4.44,1.69-1.08,3.66-1.62,5.93-1.62,3.33,0,5.97,1.15,7.91,3.44,1.94,2.29,2.91,5.74,2.91,10.35v19.61h-5.97v-19.67c0-3.23-.56-5.52-1.67-6.87-1.11-1.34-2.77-2.02-4.97-2.02-2.04,0-3.69.71-4.96,2.12-1.26,1.41-2.01,3.2-2.23,5.36v21.07h-6v-19.67c0-3.07-.57-5.32-1.71-6.74-1.14-1.43-2.78-2.14-4.93-2.14-1.82,0-3.31.37-4.49,1.12-1.17.75-2.07,1.8-2.7,3.15v24.28h-5.97v-32.8h5.33Z"/>
    <path class="cls-1" d="M569.19,265.89c-4.71,0-8.38-1.51-11.02-4.52-2.64-3.01-3.96-6.97-3.96-11.88v-1.33c0-4.71,1.36-8.6,4.08-11.69,2.72-3.08,6.04-4.62,9.96-4.62,4.39,0,7.67,1.36,9.87,4.09,2.19,2.73,3.29,6.36,3.29,10.88v3.15h-20.98l-.09.15c0,3.29.73,5.97,2.18,8.02,1.45,2.05,3.68,3.08,6.67,3.08,2.02,0,3.79-.29,5.32-.86,1.53-.58,2.83-1.37,3.93-2.38l2.33,3.88c-1.17,1.13-2.72,2.09-4.64,2.86-1.92.78-4.23,1.17-6.94,1.17ZM568.25,236.55c-2.08,0-3.8.8-5.17,2.41-1.36,1.61-2.2,3.66-2.5,6.17l.06.15h14.79v-.49c0-2.38-.59-4.35-1.76-5.91-1.17-1.56-2.98-2.33-5.43-2.33Z"/>
    <path class="cls-1" d="M592.95,232.45l.42,4.88c1.09-1.74,2.46-3.09,4.11-4.05,1.65-.96,3.52-1.44,5.62-1.44,3.54,0,6.27,1.04,8.21,3.11s2.91,5.27,2.91,9.59v20.7h-5.97v-20.58c0-2.89-.57-4.94-1.71-6.15-1.14-1.21-2.88-1.82-5.23-1.82-1.84,0-3.4.37-4.68,1.11-1.28.74-2.3,1.77-3.05,3.11v24.34h-5.97v-32.8h5.33Z"/>
    <path class="cls-1" d="M630.7,224.54v7.91h6.21v4.43h-6.21v19.92c0,1.54.32,2.62.96,3.24s1.48.94,2.53.94c.34,0,.73-.05,1.15-.14.43-.09.78-.19,1.06-.29l.82,4.09c-.44.36-1.1.66-1.97.89-.87.23-1.73.35-2.58.35-2.42,0-4.36-.73-5.79-2.2-1.43-1.46-2.15-3.76-2.15-6.9v-19.92h-5.21v-4.43h5.21v-7.91h5.97Z"/>
    <path class="cls-1" d="M681.36,253.88h-16.61l-3.94,11.37h-6.09l15.91-44.13h5.12l15.58,44.13h-6.09l-3.88-11.37ZM666.48,248.88h13.18l-6.43-18.95h-.18l-6.58,18.95Z"/>
    <path class="cls-1" d="M701.84,232.45l.42,4.88c1.09-1.74,2.46-3.09,4.11-4.05,1.65-.96,3.52-1.44,5.62-1.44,3.54,0,6.27,1.04,8.21,3.11s2.91,5.27,2.91,9.59v20.7h-5.97v-20.58c0-2.89-.57-4.94-1.71-6.15-1.14-1.21-2.88-1.82-5.23-1.82-1.84,0-3.4.37-4.68,1.11-1.28.74-2.3,1.77-3.05,3.11v24.34h-5.97v-32.8h5.33Z"/>
    <path class="cls-1" d="M751.45,265.25c-.2-.99-.36-1.86-.47-2.62s-.18-1.52-.2-2.29c-1.11,1.58-2.56,2.9-4.35,3.96-1.79,1.06-3.71,1.59-5.77,1.59-3.42,0-6.02-.87-7.81-2.62-1.79-1.75-2.68-4.16-2.68-7.23s1.27-5.58,3.8-7.35c2.54-1.77,5.98-2.65,10.32-2.65h6.49v-3.24c0-1.92-.59-3.44-1.76-4.56-1.17-1.12-2.83-1.68-4.97-1.68-1.94,0-3.51.48-4.7,1.46-1.19.97-1.79,2.13-1.79,3.49l-5.67.06-.06-.18c-.14-2.38.98-4.57,3.35-6.55,2.37-1.98,5.44-2.97,9.2-2.97s6.71.94,8.97,2.83,3.4,4.61,3.4,8.17v15.79c0,1.17.06,2.3.18,3.4.12,1.09.34,2.16.67,3.21h-6.15ZM741.54,260.89c2.16,0,4.11-.56,5.85-1.67,1.74-1.11,2.87-2.38,3.4-3.82v-5.33h-6.7c-2.41,0-4.33.61-5.78,1.82-1.44,1.21-2.17,2.64-2.17,4.27,0,1.46.45,2.61,1.36,3.46.91.85,2.25,1.27,4.03,1.27Z"/>
    <path class="cls-1" d="M771.38,265.25h-5.97v-47.29h5.97v47.29Z"/>
    <path class="cls-1" d="M790.1,253.1l1.06,4.12h.18l8.06-24.76h6.64l-13.79,37.83c-.83,2.2-2.02,4.12-3.56,5.76s-3.63,2.46-6.26,2.46c-.48,0-1.1-.06-1.85-.17-.75-.11-1.32-.22-1.73-.32l.61-4.7c-.12-.02.24,0,1.08.06.84.06,1.37.09,1.59.09,1.27,0,2.31-.57,3.12-1.7s1.49-2.38,2.03-3.76l1.42-3.42-12.19-32.13h6.67l6.91,20.64Z"/>
    <path class="cls-1" d="M829.86,256.43c0-1.31-.5-2.38-1.5-3.21s-2.89-1.56-5.68-2.18c-3.86-.83-6.82-1.99-8.9-3.49-2.07-1.5-3.11-3.5-3.11-6,0-2.67,1.14-4.95,3.41-6.85,2.27-1.9,5.22-2.85,8.84-2.85s6.73,1.01,9.03,3.03c2.3,2.02,3.41,4.38,3.3,7.06l-.06.18h-5.7c0-1.41-.62-2.7-1.86-3.85-1.24-1.15-2.81-1.73-4.71-1.73-2.1,0-3.67.47-4.71,1.42s-1.56,2.08-1.56,3.4.45,2.29,1.35,3c.9.71,2.75,1.35,5.56,1.94,4.02.85,7.07,2.05,9.15,3.61s3.12,3.59,3.12,6.09c0,2.91-1.18,5.28-3.53,7.12-2.35,1.84-5.43,2.76-9.23,2.76-4.18,0-7.48-1.06-9.88-3.18-2.41-2.12-3.55-4.6-3.43-7.43l.06-.18h5.7c.1,2.12.89,3.67,2.37,4.65,1.47.98,3.2,1.47,5.18,1.47,2.12,0,3.78-.45,4.99-1.35,1.2-.9,1.8-2.05,1.8-3.44Z"/>
    <path class="cls-1" d="M849.22,224.06h-5.97v-6.09h5.97v6.09ZM849.22,265.25h-5.97v-32.8h5.97v32.8Z"/>
    <path class="cls-1" d="M876.97,256.43c0-1.31-.5-2.38-1.5-3.21s-2.89-1.56-5.68-2.18c-3.86-.83-6.82-1.99-8.9-3.49-2.07-1.5-3.11-3.5-3.11-6,0-2.67,1.14-4.95,3.41-6.85,2.27-1.9,5.22-2.85,8.84-2.85s6.73,1.01,9.03,3.03c2.3,2.02,3.41,4.38,3.3,7.06l-.06.18h-5.7c0-1.41-.62-2.7-1.86-3.85-1.24-1.15-2.81-1.73-4.71-1.73-2.1,0-3.67.47-4.71,1.42s-1.56,2.08-1.56,3.4.45,2.29,1.35,3c.9.71,2.75,1.35,5.56,1.94,4.02.85,7.07,2.05,9.15,3.61s3.12,3.59,3.12,6.09c0,2.91-1.18,5.28-3.53,7.12-2.35,1.84-5.43,2.76-9.23,2.76-4.18,0-7.48-1.06-9.88-3.18-2.41-2.12-3.55-4.6-3.43-7.43l.06-.18h5.7c.1,2.12.89,3.67,2.37,4.65,1.47.98,3.2,1.47,5.18,1.47,2.12,0,3.78-.45,4.99-1.35,1.2-.9,1.8-2.05,1.8-3.44Z"/>
  </g>
  <g>
    <g>
      <path class="cls-2" d="M1.88,144.98c20.27-19.25,34.31-32.55,38.18-35.99.08-.07,5.86-5.52,8.42-9.22,1.53-2.21,2.16-3.55,4.42-6.46,2.43-3.13,3.86-4.94,6.35-6.46,2.23-1.37,2.65-.87,6.12-2.61.71-.36,2.33-1.2,6.12-3.86,2.12-1.49,4.93-3.47,8.62-6.58,6.65-5.6,9.97-8.4,10.77-10.77.31-.9.79-2.81,2.42-3.74.56-.32.86-.29,3.14-1.14.84-.31,1.11-.43,2.04-.79,2.98-1.16,3.34-1.16,4.31-1.59.61-.27,3.65-1.61,5.44-4.54.8-1.3.44-1.45,1.81-4.2.82-1.64,1.57-2.85,1.93-3.4,1.1-1.72,2.07-2.89,3.06-4.08,1.46-1.75,2.82-3.19,3.97-4.31,2.38-2.34,2.53-2.09,4.88-4.31,3.18-3,4.76-4.5,5.71-6.55.59-1.29,1.37-2.49,2.01-3.77.44-.88.78-1.61,1.59-2.04.69-.37,1.09-.19,1.81-.57.88-.46,1.23-1.23,1.59-1.81.35-.58,1.71-1.64,4.42-3.74,2.59-2.01,2.79-2.06,3.52-2.84.96-1.02.76-1.09,2.27-2.84,1.58-1.84,1.37-1.27,2.95-3.06.98-1.11,1.35-1.66,2.04-1.7.62-.04.7.39,1.81.79.72.26,1.46.33,2.95.45,1.29.11,1.41.04,1.7.23.67.44.63,1.25,1.02,2.72.33,1.25.45,1,1.13,2.95,1.08,3.07.59,3.12,1.25,4.08,1.02,1.48,1.99,1.06,3.4,2.84.36.46.47.71,1.47,2.72.64,1.29,1.3,2.56,1.93,3.86,2.54,5.26,4.47,6.98,6.8,12.48.48,1.13.82,2.06,1.02,2.61,1.27-.05,2.94.05,4.76.68.63.22,1.56.54,2.61,1.25,1.67,1.12,1.78,1.95,3.29,3.18,1.15.92,2.18,1.33,3.4,1.81,1.11.44,4.1,1.25,5.73,1.2.19,0,.72-.04,1.24.25.07.04.34.2.77.68.49.56.75,1.08.78,1.12.55,1.07,2.71,3.73,5.18,7.04,2.91,3.92,4.37,5.88,4.81,7.02.93,2.44.65,3.49,2.04,5.61,1.07,1.63,2.39,2.78,3.36,3.62,1.47,1.27,2.63,1.98,3.79,2.72,3.61,2.31,2.55,1.92,8.97,6.25,3.49,2.35,5.23,3.53,5.7,3.74,1.77.82,3.44,1.3,4.98,3.02.55.62.95,1.24,1.49,2.08,1.06,1.67,1.27,2.43,2.17,3.96.42.71,1.08,1.75,2.06,2.96,10.25,10.85,20.5,21.7,30.75,32.54-56.9,53.77-113.81,107.55-170.71,161.32C69.64,253.98,35.82,218.19,2,182.39"/>
      <path class="cls-3" d="M162.67,35.89c-1.41-3.53-2.11-5.79-2.47-7.36-.13-.59-.41-1.94-1.45-3.23-.46-.57-.92-.96-1.23-1.19-.1-.22-.23-.55-.3-.98-.11-.63-.03-1.12,0-1.36.03-.19.24-1.77.21-3.19,0,0-.03-1.38.13-2.55.01-.11.06-.39.26-.64.21-.26.5-.37.68-.43.59-.18,2.07-.5,4.05-.82"/>
      <path class="cls-2" d="M111.99,68.01c2.02-5.5,4.49-8.42,6.46-10.09.62-.52,1.59-1.26,2.72-2.61,2.05-2.45,2.25-4.07,3.52-6.35,2.2-3.96,3.69-2.83,6.24-6.8,1.83-2.86.83-3.08,3.63-8.62,1.88-3.72,2.24-3.43,2.72-5.22,0,0,.79-2.9,2.04-4.08.49-.46.88-.68.88-.68.61-.34.96-.31,1.55-.67.35-.22.57-.44.75-.62.53-.54,1.33-1.73,2.1-4.96.3-1.27.33-1.72.81-2.21.59-.6,1.2-.57,1.85-.88,1.42-.68,1.85-2.46,2.23-3.8.56-1.99,1.46-4.59,3.01-8.19"/>
      <path class="cls-2" d="M194.45,49.52c.29,1.06.69,2.54,1.13,4.31.59,2.35.89,3.52,1.13,4.76.78,3.92.33,3.88,1.02,6.01.49,1.49.89,2.08.91,3.4.01,1.09-.25,1.57,0,2.61.27,1.12.72,1.11,1.02,2.15.43,1.49-.3,2.09,0,3.33.25,1.02.99,1.6,2.27,2.56,2.6,1.97,3.87,1.68,5.56,3.18,1.38,1.23,1.89,2.63,2.27,3.52,1.33,3.15,5.55,10.64,14.06,24.61"/>
      <path class="cls-2" d="M101.78,90.58c-.12-6.13.8-10.37,1.7-13.16.34-1.04,1.23-3.6,1.59-7.15.28-2.77.08-4.59,0-5.22-.27-2.07-.47-1.22-1.59-5.67-.18-.72-.47-1.14-.79-1.47-1.46-1.56-5.19-.17-5.7.03"/>
      <line class="cls-2" x1="2" y1="144.7" x2="2.11" y2="182.61"/>
      <line class="cls-2" x1="20.91" y1="163.07" x2="2.24" y2="144.94"/>
      <line class="cls-2" x1="2.11" y1="182.3" x2="20.63" y2="162.8"/>
    </g>
    <path class="cls-2" d="M63.52,144.98c20.27-19.25,34.31-32.55,38.18-35.99.08-.07,5.86-5.52,8.42-9.22,1.53-2.21,2.16-3.55,4.42-6.46,2.43-3.13,3.86-4.94,6.35-6.46,2.23-1.37,2.65-.87,6.12-2.61.71-.36,2.33-1.2,6.12-3.86,2.12-1.49,4.93-3.47,8.62-6.58,6.65-5.6,9.97-8.4,10.77-10.77.31-.9.79-2.81,2.42-3.74.56-.32.86-.29,3.14-1.14.84-.31,1.11-.43,2.04-.79,2.98-1.16,3.34-1.16,4.31-1.59.61-.27,3.65-1.61,5.44-4.54.8-1.3.44-1.45,1.81-4.2.82-1.64,1.57-2.85,1.93-3.4,1.1-1.72,2.07-2.89,3.06-4.08,1.46-1.75,2.82-3.19,3.97-4.31,2.38-2.34,2.53-2.09,4.88-4.31,3.18-3,4.76-4.5,5.71-6.55.59-1.29,1.37-2.49,2.01-3.77.44-.88.78-1.61,1.59-2.04.69-.37,1.09-.19,1.81-.57.88-.46,1.23-1.23,1.59-1.81.35-.58,1.71-1.64,4.42-3.74,2.59-2.01,2.79-2.06,3.52-2.84.96-1.02.76-1.09,2.27-2.84,1.58-1.84,1.37-1.27,2.95-3.06.98-1.11,1.35-1.66,2.04-1.7.62-.04.7.39,1.81.79.72.26,1.46.33,2.95.45,1.29.11,1.41.04,1.7.23.67.44.63,1.25,1.02,2.72.33,1.25.45,1,1.13,2.95,1.08,3.07.59,3.12,1.25,4.08,1.02,1.48,1.99,1.06,3.4,2.84.36.46.47.71,1.47,2.72.64,1.29,1.3,2.56,1.93,3.86,2.54,5.26,4.47,6.98,6.8,12.48.48,1.13.82,2.06,1.02,2.61,1.27-.05,2.94.05,4.76.68.63.22,1.56.54,2.61,1.25,1.67,1.12,1.78,1.95,3.29,3.18,1.15.92,2.18,1.33,3.4,1.81,1.11.44,4.1,1.25,5.73,1.2.19,0,.72-.04,1.24.25.07.04.34.2.77.68.49.56.75,1.08.78,1.12.55,1.07,2.71,3.73,5.18,7.04,2.91,3.92,4.37,5.88,4.81,7.02.93,2.44.65,3.49,2.04,5.61,1.07,1.63,2.39,2.78,3.36,3.62,1.47,1.27,2.63,1.98,3.79,2.72,3.61,2.31,2.55,1.92,8.97,6.25,3.49,2.35,5.23,3.53,5.7,3.74,1.77.82,3.44,1.3,4.98,3.02.55.62.95,1.24,1.49,2.08,1.06,1.67,1.27,2.43,2.17,3.96.42.71,1.08,1.75,2.06,2.96,10.25,10.85,20.5,21.7,30.75,32.54-56.9,53.77-113.81,107.55-170.71,161.32-33.82-35.8-67.64-71.59-101.46-107.39"/>
    <path class="cls-3" d="M224.32,35.89c-1.41-3.53-2.11-5.79-2.47-7.36-.13-.59-.41-1.94-1.45-3.23-.46-.57-.92-.96-1.23-1.19-.1-.22-.23-.55-.3-.98-.11-.63-.03-1.12,0-1.36.03-.19.24-1.77.21-3.19,0,0-.03-1.38.13-2.55.01-.11.06-.39.26-.64.21-.26.5-.37.68-.43.59-.18,2.07-.5,4.05-.82"/>
    <path class="cls-2" d="M173.64,68.01c2.02-5.5,4.49-8.42,6.46-10.09.62-.52,1.59-1.26,2.72-2.61,2.05-2.45,2.25-4.07,3.52-6.35,2.2-3.96,3.69-2.83,6.24-6.8,1.83-2.86.83-3.08,3.63-8.62,1.88-3.72,2.24-3.43,2.72-5.22,0,0,.79-2.9,2.04-4.08.49-.46.88-.68.88-.68.61-.34.96-.31,1.55-.67.35-.22.57-.44.75-.62.53-.54,1.33-1.73,2.1-4.96.3-1.27.33-1.72.81-2.21.59-.6,1.2-.57,1.85-.88,1.42-.68,1.85-2.46,2.23-3.8.56-1.99,1.46-4.59,3.01-8.19"/>
    <path class="cls-2" d="M237.7,37.79c.29,1.06.69,2.54,1.13,4.31.59,2.35.89,3.52,1.13,4.76.78,3.92.33,3.88,1.02,6.01.49,1.49.89,2.08.91,3.4.01,1.09-.25,1.57,0,2.61.27,1.12.72,1.11,1.02,2.15.43,1.49-.3,2.09,0,3.33.25,1.02.99,1.6,2.27,2.56,2.6,1.97,3.87,1.68,5.56,3.18,1.38,1.23,1.89,2.63,2.27,3.52,1.33,3.15,5.55,10.64,14.06,24.61"/>
    <path class="cls-2" d="M163.43,90.58c-.12-6.13.8-10.37,1.7-13.16.34-1.04,1.23-3.6,1.59-7.15.28-2.77.08-4.59,0-5.22-.27-2.07-.47-1.22-1.59-5.67-.18-.72-.47-1.14-.79-1.47-1.46-1.56-5.19-.17-5.7.03"/>
    <line class="cls-2" x1="63.64" y1="144.7" x2="63.75" y2="182.61"/>
    <line class="cls-2" x1="82.56" y1="163.07" x2="63.89" y2="144.94"/>
    <line class="cls-2" x1="63.75" y1="182.3" x2="82.27" y2="162.8"/>
  </g>
</svg>