<?xml version="1.0" encoding="UTF-8"?>
<svg id="Capa_1" data-name="Capa 1" xmlns="http://www.w3.org/2000/svg" viewBox="0 0 523.09 208.06">
  <defs>
    <style>
      .cls-1 {
        fill: #3a5ba6;
      }

      .cls-2 {
        fill: #fff;
      }

      .cls-2, .cls-3 {
        stroke: #3a5ba6;
        stroke-miterlimit: 10;
        stroke-width: 4px;
      }

      .cls-3 {
        fill: none;
      }
    </style>
  </defs>
  <path class="cls-1" d="M262.8,89.32v-15.16c2.75,2.3,5.73,4.03,8.95,5.19,3.22,1.15,6.47,1.73,9.76,1.73,1.93,0,3.61-.17,5.04-.52s2.64-.83,3.6-1.45c.96-.61,1.68-1.34,2.16-2.18.47-.83.71-1.74.71-2.72,0-1.33-.38-2.51-1.14-3.55-.76-1.04-1.79-2-3.1-2.89-1.31-.88-2.87-1.74-4.67-2.56-1.8-.82-3.74-1.66-5.82-2.51-5.31-2.21-9.26-4.91-11.87-8.1-2.61-3.19-3.91-7.04-3.91-11.56,0-3.54.71-6.58,2.13-9.12,1.42-2.54,3.35-4.63,5.8-6.28,2.45-1.64,5.28-2.85,8.5-3.62,3.22-.77,6.63-1.16,10.23-1.16s6.67.21,9.4.64c2.73.43,5.25,1.08,7.56,1.97v14.16c-1.14-.79-2.38-1.48-3.72-2.08-1.34-.6-2.72-1.1-4.15-1.49-1.42-.39-2.83-.69-4.24-.88s-2.74-.28-4-.28c-1.74,0-3.32.17-4.74.5-1.42.33-2.62.8-3.6,1.4-.98.6-1.74,1.32-2.27,2.15-.54.84-.81,1.78-.81,2.82,0,1.14.3,2.15.9,3.05.6.9,1.45,1.75,2.56,2.56,1.1.81,2.45,1.6,4.03,2.37,1.58.78,3.36,1.57,5.35,2.39,2.72,1.14,5.16,2.34,7.32,3.62,2.16,1.28,4.02,2.72,5.56,4.33,1.55,1.61,2.73,3.45,3.55,5.52.82,2.07,1.23,4.47,1.23,7.22,0,3.79-.72,6.97-2.15,9.54-1.44,2.57-3.39,4.66-5.85,6.25-2.46,1.6-5.33,2.74-8.6,3.43-3.27.7-6.72,1.04-10.35,1.04s-7.27-.32-10.63-.95c-3.36-.63-6.28-1.58-8.74-2.84Z"/>
  <path class="cls-1" d="M323.39,89.32v-15.16c2.75,2.3,5.73,4.03,8.95,5.19s6.47,1.73,9.76,1.73c1.93,0,3.61-.17,5.04-.52s2.64-.83,3.6-1.45c.96-.61,1.68-1.34,2.16-2.18.47-.83.71-1.74.71-2.72,0-1.33-.38-2.51-1.14-3.55-.76-1.04-1.79-2-3.1-2.89-1.31-.88-2.87-1.74-4.67-2.56s-3.74-1.66-5.82-2.51c-5.31-2.21-9.26-4.91-11.87-8.1-2.61-3.19-3.91-7.04-3.91-11.56,0-3.54.71-6.58,2.13-9.12,1.42-2.54,3.35-4.63,5.8-6.28,2.45-1.64,5.28-2.85,8.5-3.62,3.22-.77,6.63-1.16,10.23-1.16s6.67.21,9.4.64c2.73.43,5.25,1.08,7.56,1.97v14.16c-1.14-.79-2.38-1.48-3.72-2.08-1.34-.6-2.72-1.1-4.15-1.49-1.42-.39-2.83-.69-4.24-.88s-2.74-.28-4-.28c-1.74,0-3.32.17-4.74.5-1.42.33-2.62.8-3.6,1.4-.98.6-1.74,1.32-2.27,2.15-.54.84-.81,1.78-.81,2.82,0,1.14.3,2.15.9,3.05.6.9,1.45,1.75,2.56,2.56,1.1.81,2.45,1.6,4.03,2.37,1.58.78,3.36,1.57,5.35,2.39,2.72,1.14,5.16,2.34,7.32,3.62,2.16,1.28,4.02,2.72,5.56,4.33,1.55,1.61,2.73,3.45,3.55,5.52s1.23,4.47,1.23,7.22c0,3.79-.72,6.97-2.15,9.54-1.44,2.57-3.39,4.66-5.85,6.25s-5.33,2.74-8.6,3.43c-3.27.7-6.72,1.04-10.35,1.04s-7.27-.32-10.63-.95c-3.36-.63-6.28-1.58-8.74-2.84Z"/>
  <path class="cls-1" d="M387.1,91.93V24.01h24.06c24.13,0,36.19,11.04,36.19,33.11,0,10.58-3.29,19.02-9.88,25.34-6.58,6.32-15.35,9.47-26.31,9.47h-24.06ZM402.39,36.46v43.05h7.58c6.63,0,11.83-1.99,15.61-5.97,3.77-3.98,5.66-9.39,5.66-16.25,0-6.47-1.87-11.57-5.61-15.28-3.74-3.71-8.99-5.56-15.75-5.56h-7.49Z"/>
  <path class="cls-1" d="M523.09,91.93h-16.67l-4.83-15.11h-24.15l-4.79,15.11h-16.58l24.73-67.92h18.14l24.16,67.92ZM498.08,65.07l-7.3-22.83c-.54-1.71-.91-3.74-1.14-6.11h-.38c-.16,1.99-.55,3.96-1.18,5.92l-7.39,23.02h17.38Z"/>
  <path class="cls-1" d="M277.67,169.76h26.63v11.48h-41.79v-4.73c0-3.21.54-6.1,1.62-8.65,1.08-2.55,2.44-4.85,4.07-6.88,1.63-2.03,3.42-3.82,5.36-5.39,1.94-1.56,3.79-2.97,5.54-4.23,1.84-1.31,3.45-2.57,4.84-3.77,1.39-1.2,2.55-2.39,3.5-3.57.95-1.18,1.66-2.38,2.12-3.59.47-1.21.7-2.5.7-3.88,0-2.69-.76-4.72-2.28-6.09-1.52-1.37-3.84-2.06-6.97-2.06-5.4,0-10.57,2.15-15.5,6.44v-12.18c5.46-3.53,11.62-5.3,18.48-5.3,3.18,0,6.04.42,8.56,1.25,2.53.83,4.67,2.02,6.42,3.57,1.75,1.55,3.09,3.42,4.01,5.63.92,2.2,1.38,4.66,1.38,7.38,0,2.89-.44,5.46-1.33,7.71-.89,2.25-2.07,4.29-3.55,6.13-1.47,1.84-3.18,3.52-5.1,5.06-1.93,1.53-3.93,3.01-6,4.45-1.4.99-2.75,1.98-4.05,2.96-1.3.98-2.44,1.94-3.44,2.89-.99.95-1.78,1.88-2.36,2.78-.58.91-.88,1.77-.88,2.59Z"/>
  <path class="cls-1" d="M338.31,182.33c-14.95,0-22.43-10.5-22.43-31.49,0-10.89,2.02-19.19,6.06-24.9,4.04-5.71,9.91-8.56,17.59-8.56,14.6,0,21.9,10.67,21.9,32.02,0,10.63-1.99,18.77-5.98,24.44-3.99,5.67-9.7,8.5-17.15,8.5ZM338.93,127.93c-5.99,0-8.98,7.52-8.98,22.56,0,14.16,2.94,21.24,8.8,21.24s8.58-7.3,8.58-21.9-2.8-21.9-8.41-21.9Z"/>
  <path class="cls-1" d="M385.64,169.76h26.63v11.48h-41.79v-4.73c0-3.21.54-6.1,1.62-8.65,1.08-2.55,2.44-4.85,4.07-6.88,1.63-2.03,3.42-3.82,5.36-5.39,1.94-1.56,3.79-2.97,5.54-4.23,1.84-1.31,3.45-2.57,4.84-3.77,1.39-1.2,2.55-2.39,3.5-3.57.95-1.18,1.66-2.38,2.12-3.59.47-1.21.7-2.5.7-3.88,0-2.69-.76-4.72-2.28-6.09-1.52-1.37-3.84-2.06-6.97-2.06-5.4,0-10.57,2.15-15.5,6.44v-12.18c5.46-3.53,11.62-5.3,18.48-5.3,3.18,0,6.04.42,8.56,1.25,2.53.83,4.67,2.02,6.42,3.57,1.75,1.55,3.09,3.42,4.01,5.63.92,2.2,1.38,4.66,1.38,7.38,0,2.89-.44,5.46-1.33,7.71-.89,2.25-2.07,4.29-3.55,6.13-1.47,1.84-3.18,3.52-5.1,5.06-1.93,1.53-3.93,3.01-6,4.45-1.4.99-2.75,1.98-4.05,2.96-1.3.98-2.44,1.94-3.44,2.89-.99.95-1.78,1.88-2.36,2.78-.58.91-.88,1.77-.88,2.59Z"/>
  <path class="cls-1" d="M469.45,160.34c0,3.1-.54,5.99-1.62,8.67-1.08,2.68-2.59,5.01-4.51,6.99-1.93,1.97-4.22,3.52-6.88,4.64-2.66,1.12-5.56,1.69-8.72,1.69-3.53,0-6.69-.66-9.48-1.97-2.79-1.31-5.15-3.22-7.07-5.72-1.93-2.5-3.4-5.56-4.42-9.18-1.02-3.62-1.53-7.72-1.53-12.31,0-5.4.66-10.3,1.99-14.69,1.33-4.39,3.23-8.15,5.69-11.28,2.47-3.13,5.45-5.54,8.96-7.25,3.5-1.71,7.45-2.56,11.83-2.56,4.85,0,8.61.57,11.3,1.71v11.56c-3.18-1.81-6.66-2.72-10.42-2.72-2.34,0-4.45.45-6.35,1.36-1.9.9-3.53,2.19-4.89,3.85-1.36,1.66-2.42,3.67-3.2,6.02-.77,2.35-1.19,4.97-1.25,7.86h.26c2.98-4.12,7.37-6.17,13.18-6.17,2.6,0,4.95.47,7.05,1.4,2.1.94,3.9,2.26,5.39,3.96,1.49,1.71,2.64,3.76,3.46,6.15.82,2.39,1.23,5.05,1.23,7.97ZM455.92,161.22c0-6.74-2.76-10.12-8.28-10.12-1.25,0-2.39.23-3.42.7s-1.9,1.12-2.63,1.97c-.73.85-1.29,1.85-1.69,3-.39,1.16-.59,2.43-.59,3.83,0,1.55.2,2.99.61,4.34.41,1.34.99,2.52,1.73,3.53.75,1.01,1.63,1.8,2.65,2.39,1.02.58,2.16.88,3.42.88s2.39-.25,3.39-.77c1.01-.51,1.87-1.23,2.59-2.15.72-.92,1.26-2.03,1.64-3.33s.57-2.72.57-4.27Z"/>
  <g>
    <g>
      <path class="cls-2" d="M1.92,102.97c14.31-13.59,24.23-22.99,26.96-25.42.06-.05,4.14-3.9,5.94-6.51,1.08-1.56,1.52-2.5,3.12-4.57,1.71-2.21,2.73-3.49,4.49-4.57,1.58-.97,1.87-.61,4.33-1.84.5-.25,1.65-.85,4.33-2.72,1.5-1.05,3.48-2.45,6.09-4.65,4.69-3.96,7.04-5.93,7.61-7.61.22-.64.56-1.99,1.71-2.64.4-.23.6-.21,2.22-.8.59-.22.79-.31,1.44-.56,2.1-.82,2.36-.82,3.04-1.12.43-.19,2.58-1.13,3.84-3.2.56-.92.31-1.02,1.28-2.96.58-1.16,1.11-2.01,1.36-2.4.78-1.21,1.46-2.04,2.16-2.88,1.03-1.24,1.99-2.25,2.8-3.04,1.68-1.65,1.79-1.48,3.44-3.04,2.24-2.12,3.36-3.18,4.03-4.63.42-.91.97-1.76,1.42-2.66.31-.62.55-1.14,1.12-1.44.49-.26.77-.13,1.28-.4.62-.33.87-.87,1.12-1.28.25-.41,1.21-1.16,3.12-2.64,1.83-1.42,1.97-1.46,2.48-2,.68-.72.54-.77,1.6-2,1.12-1.3.97-.9,2.08-2.16.69-.78.95-1.17,1.44-1.2.44-.03.49.27,1.28.56.51.19,1.03.23,2.08.32.91.08,1,.03,1.2.16.48.31.44.88.72,1.92.23.88.32.71.8,2.08.76,2.17.41,2.2.88,2.88.72,1.05,1.41.75,2.4,2,.26.32.34.5,1.04,1.92.45.91.92,1.81,1.36,2.72,1.79,3.72,3.16,4.93,4.81,8.81.34.8.58,1.45.72,1.84.9-.04,2.08.04,3.36.48.44.15,1.1.38,1.84.88,1.18.79,1.25,1.38,2.32,2.24.81.65,1.54.94,2.4,1.28.79.31,2.89.88,4.05.84.14,0,.51-.03.88.18.05.03.24.14.54.48.35.4.53.76.55.79.39.76,1.92,2.63,3.66,4.97,2.06,2.77,3.09,4.15,3.39,4.96.66,1.72.46,2.47,1.44,3.96.75,1.15,1.69,1.96,2.37,2.55,1.04.9,1.86,1.4,2.67,1.92,2.55,1.63,1.8,1.36,6.34,4.42,2.46,1.66,3.69,2.49,4.02,2.64,1.25.58,2.43.92,3.51,2.13.39.44.67.88,1.05,1.47.75,1.18.9,1.71,1.53,2.79.29.5.76,1.24,1.45,2.09,7.24,7.66,14.48,15.32,21.72,22.98-40.19,37.97-80.37,75.95-120.56,113.92-23.88-25.28-47.77-50.56-71.65-75.84"/>
      <path class="cls-3" d="M115.47,25.93c-1-2.5-1.49-4.09-1.74-5.2-.09-.42-.29-1.37-1.02-2.28-.32-.4-.65-.68-.87-.84-.07-.15-.16-.39-.21-.69-.08-.45-.02-.79,0-.96.02-.13.17-1.25.15-2.25,0,0-.02-.97.09-1.8.01-.08.04-.27.18-.45.15-.19.35-.26.48-.3.42-.13,1.46-.35,2.86-.58"/>
      <path class="cls-2" d="M79.68,48.62c1.42-3.88,3.17-5.95,4.57-7.13.44-.37,1.12-.89,1.92-1.84,1.45-1.73,1.59-2.88,2.48-4.49,1.55-2.79,2.61-2,4.41-4.81,1.29-2.02.58-2.17,2.56-6.09,1.33-2.62,1.58-2.42,1.92-3.68,0,0,.56-2.05,1.44-2.88.35-.33.62-.48.62-.48.43-.24.68-.22,1.1-.48.25-.15.4-.31.53-.44.37-.38.94-1.22,1.48-3.5.21-.9.23-1.22.57-1.56.42-.42.85-.4,1.31-.62,1-.48,1.31-1.74,1.58-2.68.4-1.4,1.03-3.24,2.12-5.79"/>
      <path class="cls-2" d="M137.9,35.56c.21.75.49,1.79.8,3.04.42,1.66.63,2.49.8,3.36.55,2.77.23,2.74.72,4.24.34,1.05.63,1.47.64,2.4,0,.77-.18,1.11,0,1.84.19.79.51.78.72,1.52.3,1.05-.22,1.48,0,2.35.18.72.7,1.13,1.6,1.81,1.84,1.39,2.73,1.18,3.92,2.24.98.87,1.34,1.86,1.6,2.48.94,2.22,3.92,7.52,9.93,17.38"/>
      <path class="cls-2" d="M72.47,64.55c-.08-4.33.56-7.32,1.2-9.29.24-.74.87-2.55,1.12-5.05.2-1.96.06-3.24,0-3.68-.19-1.46-.33-.86-1.12-4-.13-.51-.33-.8-.56-1.04-1.03-1.1-3.66-.12-4.03.02"/>
      <line class="cls-2" x1="2" y1="102.78" x2="2.08" y2="129.55"/>
      <line class="cls-2" x1="15.36" y1="115.75" x2="2.17" y2="102.95"/>
      <line class="cls-2" x1="2.08" y1="129.33" x2="15.15" y2="115.55"/>
    </g>
    <path class="cls-2" d="M45.45,102.97c14.31-13.59,24.23-22.99,26.96-25.42.06-.05,4.14-3.9,5.94-6.51,1.08-1.56,1.52-2.5,3.12-4.57,1.71-2.21,2.73-3.49,4.49-4.57,1.58-.97,1.87-.61,4.33-1.84.5-.25,1.65-.85,4.33-2.72,1.5-1.05,3.48-2.45,6.09-4.65,4.69-3.96,7.04-5.93,7.61-7.61.22-.64.56-1.99,1.71-2.64.4-.23.6-.21,2.22-.8.59-.22.79-.31,1.44-.56,2.1-.82,2.36-.82,3.04-1.12.43-.19,2.58-1.13,3.84-3.2.56-.92.31-1.02,1.28-2.96.58-1.16,1.11-2.01,1.36-2.4.78-1.21,1.46-2.04,2.16-2.88,1.03-1.24,1.99-2.25,2.8-3.04,1.68-1.65,1.79-1.48,3.44-3.04,2.24-2.12,3.36-3.18,4.03-4.63.42-.91.97-1.76,1.42-2.66.31-.62.55-1.14,1.12-1.44.49-.26.77-.13,1.28-.4.62-.33.87-.87,1.12-1.28.25-.41,1.21-1.16,3.12-2.64,1.83-1.42,1.97-1.46,2.48-2,.68-.72.54-.77,1.6-2,1.12-1.3.97-.9,2.08-2.16.69-.78.95-1.17,1.44-1.2.44-.03.49.27,1.28.56.51.19,1.03.23,2.08.32.91.08,1,.03,1.2.16.48.31.44.88.72,1.92.23.88.32.71.8,2.08.76,2.17.41,2.2.88,2.88.72,1.05,1.41.75,2.4,2,.26.32.34.5,1.04,1.92.45.91.92,1.81,1.36,2.72,1.79,3.72,3.16,4.93,4.81,8.81.34.8.58,1.45.72,1.84.9-.04,2.08.04,3.36.48.44.15,1.1.38,1.84.88,1.18.79,1.25,1.38,2.32,2.24.81.65,1.54.94,2.4,1.28.79.31,2.89.88,4.05.84.14,0,.51-.03.88.18.05.03.24.14.54.48.35.4.53.76.55.79.39.76,1.92,2.63,3.66,4.97,2.06,2.77,3.09,4.15,3.39,4.96.66,1.72.46,2.47,1.44,3.96.75,1.15,1.69,1.96,2.37,2.55,1.04.9,1.86,1.4,2.67,1.92,2.55,1.63,1.8,1.36,6.34,4.42,2.46,1.66,3.69,2.49,4.02,2.64,1.25.58,2.43.92,3.51,2.13.39.44.67.88,1.05,1.47.75,1.18.9,1.71,1.53,2.79.29.5.76,1.24,1.45,2.09,7.24,7.66,14.48,15.32,21.72,22.98-40.19,37.97-80.37,75.95-120.56,113.92-23.88-25.28-47.77-50.56-71.65-75.84"/>
    <path class="cls-3" d="M159,25.93c-1-2.5-1.49-4.09-1.74-5.2-.09-.42-.29-1.37-1.02-2.28-.32-.4-.65-.68-.87-.84-.07-.15-.16-.39-.21-.69-.08-.45-.02-.79,0-.96.02-.13.17-1.25.15-2.25,0,0-.02-.97.09-1.8.01-.08.04-.27.18-.45.15-.19.35-.26.48-.3.42-.13,1.46-.35,2.86-.58"/>
    <path class="cls-2" d="M123.21,48.62c1.42-3.88,3.17-5.95,4.57-7.13.44-.37,1.12-.89,1.92-1.84,1.45-1.73,1.59-2.88,2.48-4.49,1.55-2.79,2.61-2,4.41-4.81,1.29-2.02.58-2.17,2.56-6.09,1.33-2.62,1.58-2.42,1.92-3.68,0,0,.56-2.05,1.44-2.88.35-.33.62-.48.62-.48.43-.24.68-.22,1.1-.48.25-.15.4-.31.53-.44.37-.38.94-1.22,1.48-3.5.21-.9.23-1.22.57-1.56.42-.42.85-.4,1.31-.62,1-.48,1.31-1.74,1.58-2.68.4-1.4,1.03-3.24,2.12-5.79"/>
    <path class="cls-2" d="M168.45,27.27c.21.75.49,1.79.8,3.04.42,1.66.63,2.49.8,3.36.55,2.77.23,2.74.72,4.24.34,1.05.63,1.47.64,2.4,0,.77-.18,1.11,0,1.84.19.79.51.78.72,1.52.3,1.05-.22,1.48,0,2.35.18.72.7,1.13,1.6,1.81,1.84,1.39,2.73,1.18,3.92,2.24.98.87,1.34,1.86,1.6,2.48.94,2.22,3.92,7.52,9.93,17.38"/>
    <path class="cls-2" d="M116,64.55c-.08-4.33.56-7.32,1.2-9.29.24-.74.87-2.55,1.12-5.05.2-1.96.06-3.24,0-3.68-.19-1.46-.33-.86-1.12-4-.13-.51-.33-.8-.56-1.04-1.03-1.1-3.66-.12-4.03.02"/>
    <line class="cls-2" x1="45.53" y1="102.78" x2="45.61" y2="129.55"/>
    <line class="cls-2" x1="58.89" y1="115.75" x2="45.7" y2="102.95"/>
    <line class="cls-2" x1="45.61" y1="129.33" x2="58.69" y2="115.55"/>
  </g>
</svg>