<?xml version="1.0" encoding="UTF-8"?>
<svg id="Capa_1" data-name="Capa 1" xmlns="http://www.w3.org/2000/svg" viewBox="0 0 803 292.61">
  <defs>
    <style>
      .cls-1 {
        fill: #3a5ba6;
      }

      .cls-2 {
        fill: #fff;
      }

      .cls-2, .cls-3 {
        stroke: #3a5ba6;
        stroke-miterlimit: 10;
        stroke-width: 4px;
      }

      .cls-3 {
        fill: none;
      }
    </style>
  </defs>
  <g>
    <path class="cls-1" d="M352.7,114.56v-11.98c2.17,1.82,4.53,3.19,7.07,4.1,2.55.91,5.12,1.36,7.71,1.36,1.52,0,2.85-.14,3.99-.41s2.08-.65,2.84-1.14c.76-.49,1.33-1.06,1.7-1.72.37-.66.56-1.38.56-2.15,0-1.05-.3-1.98-.9-2.81-.6-.82-1.42-1.58-2.45-2.28-1.04-.7-2.27-1.37-3.69-2.02-1.42-.65-2.96-1.31-4.6-1.98-4.19-1.75-7.32-3.88-9.38-6.4-2.06-2.52-3.09-5.56-3.09-9.13,0-2.79.56-5.2,1.69-7.21,1.12-2.01,2.65-3.66,4.58-4.96,1.93-1.3,4.17-2.25,6.72-2.86,2.55-.61,5.24-.92,8.09-.92s5.27.17,7.43.5c2.16.34,4.15.85,5.97,1.55v11.19c-.9-.62-1.88-1.17-2.94-1.65-1.06-.47-2.15-.87-3.28-1.18-1.12-.31-2.24-.54-3.35-.69s-2.16-.22-3.16-.22c-1.37,0-2.62.13-3.74.39-1.12.26-2.07.63-2.84,1.1-.77.47-1.37,1.04-1.8,1.7-.42.66-.64,1.4-.64,2.23,0,.9.24,1.7.71,2.41.48.71,1.15,1.39,2.02,2.02.87.64,1.93,1.26,3.18,1.87,1.25.61,2.66,1.24,4.23,1.89,2.15.9,4.07,1.85,5.78,2.86,1.71,1.01,3.18,2.15,4.4,3.42,1.22,1.27,2.16,2.73,2.81,4.36.65,1.63.97,3.54.97,5.71,0,2.99-.57,5.51-1.7,7.54-1.14,2.03-2.68,3.68-4.62,4.94-1.95,1.26-4.21,2.16-6.79,2.71-2.58.55-5.31.83-8.18.83s-5.75-.25-8.4-.75c-2.66-.5-4.96-1.25-6.91-2.25Z"/>
    <path class="cls-1" d="M400.58,114.56v-11.98c2.17,1.82,4.53,3.19,7.07,4.1s5.12,1.36,7.71,1.36c1.52,0,2.85-.14,3.99-.41s2.08-.65,2.84-1.14c.76-.49,1.33-1.06,1.7-1.72.37-.66.56-1.38.56-2.15,0-1.05-.3-1.98-.9-2.81-.6-.82-1.42-1.58-2.45-2.28-1.04-.7-2.27-1.37-3.69-2.02s-2.96-1.31-4.6-1.98c-4.19-1.75-7.32-3.88-9.38-6.4-2.06-2.52-3.09-5.56-3.09-9.13,0-2.79.56-5.2,1.69-7.21,1.12-2.01,2.65-3.66,4.58-4.96,1.93-1.3,4.17-2.25,6.72-2.86,2.55-.61,5.24-.92,8.09-.92s5.27.17,7.43.5c2.16.34,4.15.85,5.97,1.55v11.19c-.9-.62-1.88-1.17-2.94-1.65-1.06-.47-2.15-.87-3.28-1.18-1.12-.31-2.24-.54-3.35-.69s-2.16-.22-3.16-.22c-1.37,0-2.62.13-3.74.39-1.12.26-2.07.63-2.84,1.1-.77.47-1.37,1.04-1.8,1.7-.42.66-.64,1.4-.64,2.23,0,.9.24,1.7.71,2.41.48.71,1.15,1.39,2.02,2.02.87.64,1.93,1.26,3.18,1.87,1.25.61,2.66,1.24,4.23,1.89,2.15.9,4.07,1.85,5.78,2.86,1.71,1.01,3.18,2.15,4.4,3.42,1.22,1.27,2.16,2.73,2.81,4.36s.97,3.54.97,5.71c0,2.99-.57,5.51-1.7,7.54-1.14,2.03-2.68,3.68-4.62,4.94s-4.21,2.16-6.79,2.71c-2.58.55-5.31.83-8.18.83s-5.75-.25-8.4-.75c-2.66-.5-4.96-1.25-6.91-2.25Z"/>
    <path class="cls-1" d="M450.93,116.62v-53.68h19.02c19.07,0,28.6,8.72,28.6,26.17,0,8.36-2.6,15.03-7.81,20.03-5.2,4.99-12.13,7.49-20.79,7.49h-19.02ZM463.02,72.79v34.03h5.99c5.24,0,9.35-1.57,12.34-4.72,2.98-3.14,4.47-7.42,4.47-12.84,0-5.12-1.48-9.14-4.44-12.07-2.96-2.93-7.11-4.4-12.45-4.4h-5.92Z"/>
    <path class="cls-1" d="M558.4,116.62h-13.18l-3.82-11.94h-19.09l-3.78,11.94h-13.1l19.54-53.68h14.34l19.09,53.68ZM538.63,95.4l-5.77-18.04c-.42-1.35-.72-2.96-.9-4.83h-.3c-.12,1.57-.44,3.13-.93,4.68l-5.84,18.19h13.74Z"/>
    <path class="cls-1" d="M630.13,106.82h22.76v9.81h-35.71v-4.04c0-2.75.46-5.21,1.39-7.39.92-2.18,2.08-4.14,3.48-5.88,1.4-1.73,2.92-3.27,4.58-4.6,1.66-1.34,3.24-2.54,4.74-3.61,1.57-1.12,2.95-2.2,4.14-3.22,1.18-1.02,2.18-2.04,2.99-3.05.81-1.01,1.42-2.03,1.82-3.07.4-1.04.6-2.14.6-3.31,0-2.3-.65-4.03-1.95-5.2-1.3-1.17-3.28-1.76-5.95-1.76-4.62,0-9.03,1.83-13.25,5.5v-10.41c4.67-3.02,9.93-4.53,15.8-4.53,2.72,0,5.16.36,7.32,1.07,2.16.71,3.99,1.73,5.48,3.05,1.5,1.32,2.64,2.93,3.42,4.81.79,1.88,1.18,3.99,1.18,6.31,0,2.47-.38,4.67-1.14,6.59-.76,1.92-1.77,3.67-3.03,5.24-1.26,1.57-2.71,3.01-4.36,4.32-1.65,1.31-3.36,2.58-5.13,3.8-1.2.85-2.35,1.69-3.46,2.53-1.11.84-2.09,1.66-2.94,2.47-.85.81-1.52,1.6-2.02,2.38-.5.77-.75,1.51-.75,2.21Z"/>
    <path class="cls-1" d="M684.82,117.56c-12.78,0-19.17-8.97-19.17-26.91,0-9.31,1.73-16.4,5.18-21.28,3.46-4.88,8.47-7.32,15.03-7.32,12.48,0,18.72,9.12,18.72,27.36,0,9.08-1.7,16.05-5.11,20.89-3.41,4.84-8.29,7.26-14.65,7.26ZM685.34,71.07c-5.12,0-7.67,6.43-7.67,19.28,0,12.1,2.51,18.15,7.52,18.15s7.34-6.24,7.34-18.72-2.4-18.72-7.19-18.72Z"/>
    <path class="cls-1" d="M728.13,106.82h22.76v9.81h-35.71v-4.04c0-2.75.46-5.21,1.39-7.39.92-2.18,2.08-4.14,3.48-5.88,1.4-1.73,2.92-3.27,4.58-4.6,1.66-1.34,3.24-2.54,4.74-3.61,1.57-1.12,2.95-2.2,4.14-3.22,1.18-1.02,2.18-2.04,2.99-3.05.81-1.01,1.42-2.03,1.82-3.07.4-1.04.6-2.14.6-3.31,0-2.3-.65-4.03-1.95-5.2-1.3-1.17-3.28-1.76-5.95-1.76-4.62,0-9.03,1.83-13.25,5.5v-10.41c4.67-3.02,9.93-4.53,15.8-4.53,2.72,0,5.16.36,7.32,1.07,2.16.71,3.99,1.73,5.48,3.05,1.5,1.32,2.64,2.93,3.42,4.81.79,1.88,1.18,3.99,1.18,6.31,0,2.47-.38,4.67-1.14,6.59-.76,1.92-1.77,3.67-3.03,5.24-1.26,1.57-2.71,3.01-4.36,4.32-1.65,1.31-3.36,2.58-5.13,3.8-1.2.85-2.35,1.69-3.46,2.53-1.11.84-2.09,1.66-2.94,2.47-.85.81-1.52,1.6-2.02,2.38-.5.77-.75,1.51-.75,2.21Z"/>
    <path class="cls-1" d="M802.63,98.77c0,2.65-.46,5.12-1.38,7.41-.92,2.29-2.21,4.28-3.86,5.97-1.65,1.68-3.61,3.01-5.88,3.97-2.27.96-4.75,1.44-7.45,1.44-3.02,0-5.72-.56-8.1-1.69-2.38-1.12-4.4-2.75-6.04-4.89-1.65-2.13-2.91-4.75-3.78-7.84-.87-3.09-1.31-6.6-1.31-10.52,0-4.62.57-8.8,1.7-12.56,1.14-3.76,2.76-6.97,4.87-9.64,2.11-2.67,4.66-4.74,7.66-6.19,2.99-1.46,6.36-2.19,10.11-2.19,4.14,0,7.36.49,9.66,1.46v9.88c-2.72-1.55-5.69-2.32-8.91-2.32-2,0-3.81.39-5.43,1.16-1.62.77-3.01,1.87-4.18,3.29-1.16,1.42-2.07,3.14-2.73,5.15-.66,2.01-1.02,4.25-1.07,6.72h.22c2.55-3.52,6.3-5.28,11.27-5.28,2.22,0,4.23.4,6.03,1.2,1.8.8,3.33,1.93,4.6,3.39,1.27,1.46,2.26,3.21,2.96,5.26.7,2.05,1.05,4.32,1.05,6.81ZM791.06,99.51c0-5.76-2.36-8.65-7.08-8.65-1.07,0-2.05.2-2.92.6s-1.62.96-2.25,1.69c-.62.72-1.1,1.58-1.44,2.56-.34.99-.5,2.08-.5,3.28,0,1.32.17,2.56.52,3.7.35,1.15.84,2.15,1.48,3.01.64.86,1.39,1.54,2.27,2.04.87.5,1.85.75,2.92.75s2.04-.22,2.9-.65c.86-.44,1.6-1.05,2.21-1.83.61-.79,1.08-1.73,1.4-2.84.32-1.11.49-2.33.49-3.65Z"/>
  </g>
  <g>
    <path class="cls-1" d="M375.97,180c0-1.71-.61-3.14-1.84-4.3-1.23-1.16-3.38-2.14-6.47-2.95-3.83-.95-6.82-2.35-8.97-4.2-2.15-1.85-3.22-4.17-3.22-6.97,0-2.95,1.16-5.41,3.47-7.38,2.31-1.97,5.32-2.95,9.01-2.95,3.97,0,7.13,1.13,9.49,3.38s3.5,4.88,3.43,7.89l-.08.16h-4.87c0-2.14-.75-3.91-2.24-5.31-1.49-1.4-3.41-2.1-5.74-2.1s-4.21.58-5.48,1.74c-1.27,1.16-1.9,2.66-1.9,4.51,0,1.64.69,3.01,2.08,4.1,1.39,1.1,3.65,2.06,6.77,2.89,3.8.98,6.69,2.43,8.67,4.35,1.98,1.92,2.98,4.28,2.98,7.09,0,3.04-1.2,5.48-3.59,7.33-2.39,1.85-5.51,2.77-9.36,2.77-3.64,0-6.86-1.02-9.65-3.06s-4.14-4.76-4.05-8.18l.05-.16h4.87c0,2.37.9,4.19,2.69,5.48,1.79,1.29,3.82,1.93,6.08,1.93,2.42,0,4.33-.54,5.74-1.63,1.41-1.09,2.11-2.56,2.11-4.43Z"/>
    <path class="cls-1" d="M404.96,185.36c-.88,1.5-2.01,2.66-3.39,3.47-1.38.81-2.98,1.22-4.79,1.22-3.06,0-5.44-.98-7.15-2.93-1.71-1.95-2.56-4.99-2.56-9.11v-16.52h5.1v16.57c0,2.99.44,5.04,1.32,6.16s2.25,1.68,4.12,1.68,3.31-.37,4.49-1.1c1.18-.73,2.08-1.77,2.68-3.12v-20.2h5.1v28.02h-4.58l-.34-4.14Z"/>
    <path class="cls-1" d="M421.45,161.49l.36,3.68c.92-1.33,2.08-2.36,3.48-3.09,1.41-.73,3.04-1.1,4.91-1.1s3.47.43,4.8,1.3c1.34.86,2.34,2.16,3.02,3.88.9-1.61,2.07-2.87,3.51-3.79,1.44-.92,3.13-1.39,5.06-1.39,2.85,0,5.1.98,6.76,2.94,1.66,1.96,2.49,4.91,2.49,8.84v16.75h-5.1v-16.81c0-2.76-.47-4.72-1.42-5.87-.95-1.15-2.37-1.72-4.25-1.72-1.74,0-3.16.6-4.23,1.81-1.08,1.21-1.71,2.74-1.9,4.58v18h-5.13v-16.81c0-2.62-.49-4.54-1.46-5.76-.98-1.22-2.38-1.83-4.21-1.83-1.55,0-2.83.32-3.83.96-1,.64-1.77,1.54-2.3,2.69v20.74h-5.1v-28.02h4.56Z"/>
    <path class="cls-1" d="M467.38,161.49l.36,3.68c.92-1.33,2.08-2.36,3.48-3.09,1.41-.73,3.04-1.1,4.91-1.1s3.47.43,4.8,1.3c1.34.86,2.34,2.16,3.02,3.88.9-1.61,2.07-2.87,3.51-3.79,1.44-.92,3.13-1.39,5.06-1.39,2.85,0,5.1.98,6.76,2.94,1.66,1.96,2.49,4.91,2.49,8.84v16.75h-5.1v-16.81c0-2.76-.47-4.72-1.42-5.87-.95-1.15-2.37-1.72-4.25-1.72-1.74,0-3.16.6-4.23,1.81-1.08,1.21-1.71,2.74-1.9,4.58v18h-5.13v-16.81c0-2.62-.49-4.54-1.46-5.76-.98-1.22-2.38-1.83-4.21-1.83-1.55,0-2.83.32-3.83.96-1,.64-1.77,1.54-2.3,2.69v20.74h-5.1v-28.02h4.56Z"/>
    <path class="cls-1" d="M520.35,190.05c-4.02,0-7.16-1.29-9.41-3.86-2.25-2.57-3.38-5.96-3.38-10.15v-1.14c0-4.02,1.16-7.35,3.48-9.98,2.32-2.63,5.16-3.95,8.51-3.95,3.75,0,6.56,1.17,8.43,3.5,1.87,2.33,2.81,5.43,2.81,9.3v2.69h-17.92l-.08.13c0,2.81.62,5.1,1.87,6.85,1.24,1.75,3.14,2.63,5.7,2.63,1.73,0,3.24-.25,4.54-.74,1.3-.49,2.42-1.17,3.35-2.03l1.99,3.31c-1,.97-2.32,1.78-3.96,2.45-1.64.66-3.62,1-5.93,1ZM519.54,164.98c-1.78,0-3.25.69-4.42,2.06-1.17,1.37-1.88,3.13-2.14,5.27l.05.13h12.64v-.42c0-2.04-.5-3.72-1.5-5.05-1-1.33-2.55-1.99-4.64-1.99Z"/>
    <path class="cls-1" d="M549.34,165.99l-2.62-.16c-1.35,0-2.48.32-3.41.96s-1.64,1.54-2.14,2.69v20.02h-5.1v-28.02h4.56l.49,4.09c.79-1.45,1.77-2.58,2.94-3.39,1.17-.81,2.51-1.22,4.03-1.22.38,0,.74.03,1.09.09s.63.12.85.19l-.7,4.74Z"/>
    <path class="cls-1" d="M587.77,180c0-1.71-.61-3.14-1.84-4.3s-3.38-2.14-6.47-2.95c-3.83-.95-6.82-2.35-8.97-4.2-2.15-1.85-3.22-4.17-3.22-6.97,0-2.95,1.16-5.41,3.47-7.38,2.31-1.97,5.32-2.95,9.01-2.95,3.97,0,7.13,1.13,9.49,3.38s3.5,4.88,3.43,7.89l-.08.16h-4.87c0-2.14-.75-3.91-2.24-5.31s-3.41-2.1-5.74-2.1-4.21.58-5.48,1.74c-1.27,1.16-1.9,2.66-1.9,4.51,0,1.64.7,3.01,2.08,4.1,1.39,1.1,3.65,2.06,6.77,2.89,3.8.98,6.69,2.43,8.67,4.35s2.98,4.28,2.98,7.09c0,3.04-1.2,5.48-3.59,7.33-2.39,1.85-5.51,2.77-9.36,2.77-3.64,0-6.86-1.02-9.65-3.06-2.79-2.04-4.14-4.76-4.05-8.18l.05-.16h4.87c0,2.37.9,4.19,2.69,5.48,1.79,1.29,3.82,1.93,6.08,1.93,2.42,0,4.33-.54,5.74-1.63,1.41-1.09,2.11-2.56,2.11-4.43Z"/>
    <path class="cls-1" d="M610.11,186.06c1.57,0,2.94-.52,4.12-1.57,1.17-1.04,1.76-2.33,1.76-3.85h4.61l.08.16c.07,2.42-.97,4.56-3.11,6.44s-4.63,2.81-7.46,2.81c-3.94,0-6.97-1.34-9.12-4.01s-3.21-6.01-3.21-10v-1.09c0-3.95,1.08-7.27,3.22-9.96,2.15-2.68,5.18-4.03,9.1-4.03,3.12,0,5.68.97,7.68,2.9,1.99,1.93,2.96,4.31,2.89,7.12l-.05.16h-4.64c0-1.71-.56-3.16-1.67-4.36s-2.52-1.8-4.21-1.8c-2.5,0-4.33.97-5.48,2.91-1.15,1.94-1.72,4.29-1.72,7.06v1.09c0,2.81.57,5.19,1.7,7.12,1.13,1.93,2.96,2.9,5.5,2.9Z"/>
    <path class="cls-1" d="M631.41,165.24c.97-1.35,2.15-2.4,3.56-3.15,1.41-.75,2.96-1.13,4.67-1.13,2.99,0,5.31.9,6.98,2.69,1.67,1.8,2.5,4.56,2.5,8.29v17.56h-5.1v-17.61c0-2.31-.5-4.02-1.49-5.13-.99-1.1-2.47-1.66-4.44-1.66-1.52,0-2.84.3-3.96.89s-2.03,1.43-2.72,2.5v21h-5.1v-40.4h5.1v16.13Z"/>
    <path class="cls-1" d="M654.84,175.24c0-4.14,1.12-7.56,3.37-10.24s5.29-4.03,9.14-4.03,6.95,1.34,9.21,4.01,3.38,6.09,3.38,10.25v.57c0,4.18-1.12,7.6-3.37,10.25-2.25,2.66-5.3,3.99-9.17,3.99s-6.93-1.33-9.18-4c-2.25-2.67-3.38-6.08-3.38-10.24v-.57ZM659.94,175.81c0,2.97.62,5.42,1.88,7.35,1.25,1.93,3.11,2.9,5.58,2.9s4.28-.97,5.54-2.9c1.26-1.93,1.89-4.38,1.89-7.35v-.57c0-2.93-.63-5.38-1.9-7.33-1.27-1.95-3.13-2.93-5.58-2.93s-4.28.98-5.53,2.93c-1.25,1.95-1.88,4.39-1.88,7.33v.57Z"/>
    <path class="cls-1" d="M684.56,175.24c0-4.14,1.12-7.56,3.37-10.24s5.29-4.03,9.14-4.03,6.95,1.34,9.21,4.01,3.38,6.09,3.38,10.25v.57c0,4.18-1.12,7.6-3.37,10.25-2.25,2.66-5.3,3.99-9.17,3.99s-6.93-1.33-9.18-4c-2.25-2.67-3.38-6.08-3.38-10.24v-.57ZM689.66,175.81c0,2.97.62,5.42,1.88,7.35,1.25,1.93,3.11,2.9,5.58,2.9s4.28-.97,5.54-2.9c1.26-1.93,1.89-4.38,1.89-7.35v-.57c0-2.93-.63-5.38-1.9-7.33-1.27-1.95-3.13-2.93-5.58-2.93s-4.28.98-5.53,2.93c-1.25,1.95-1.88,4.39-1.88,7.33v.57Z"/>
    <path class="cls-1" d="M720.98,189.51h-5.1v-40.4h5.1v40.4Z"/>
    <path class="cls-1" d="M739.97,175.24c0-4.14,1.12-7.56,3.37-10.24s5.29-4.03,9.14-4.03,6.95,1.34,9.21,4.01,3.38,6.09,3.38,10.25v.57c0,4.18-1.12,7.6-3.37,10.25-2.25,2.66-5.3,3.99-9.17,3.99s-6.93-1.33-9.18-4c-2.25-2.67-3.38-6.08-3.38-10.24v-.57ZM745.07,175.81c0,2.97.62,5.42,1.88,7.35,1.25,1.93,3.11,2.9,5.58,2.9s4.28-.97,5.54-2.9c1.26-1.93,1.89-4.38,1.89-7.35v-.57c0-2.93-.63-5.38-1.9-7.33-1.27-1.95-3.13-2.93-5.58-2.93s-4.28.98-5.53,2.93c-1.25,1.95-1.88,4.39-1.88,7.33v.57Z"/>
    <path class="cls-1" d="M775.43,161.49l.36,4.17c.93-1.48,2.1-2.64,3.51-3.46,1.41-.82,3.01-1.23,4.8-1.23,3.02,0,5.36.88,7.02,2.65,1.66,1.77,2.49,4.5,2.49,8.2v17.69h-5.1v-17.58c0-2.47-.49-4.22-1.46-5.26-.97-1.04-2.46-1.55-4.47-1.55-1.57,0-2.9.32-4,.95-1.1.63-1.96,1.51-2.6,2.65v20.79h-5.1v-28.02h4.56Z"/>
    <path class="cls-1" d="M355.87,253.15v-37.7h11.86c4.92,0,8.88,1.51,11.87,4.54,2.99,3.03,4.49,6.94,4.49,11.74v5.15c0,4.82-1.5,8.73-4.49,11.74-3,3.01-6.95,4.52-11.87,4.52h-11.86ZM360.98,219.46v29.7h6.76c3.49,0,6.24-1.15,8.25-3.44,2.01-2.3,3.02-5.24,3.02-8.83v-5.21c0-3.56-1.01-6.48-3.02-8.78-2.01-2.3-4.76-3.44-8.25-3.44h-6.76Z"/>
    <path class="cls-1" d="M389.48,238.88c0-4.14,1.12-7.56,3.37-10.24,2.24-2.68,5.29-4.03,9.14-4.03s6.95,1.34,9.21,4.01c2.25,2.68,3.38,6.09,3.38,10.25v.57c0,4.18-1.12,7.6-3.37,10.25-2.25,2.66-5.3,3.99-9.17,3.99s-6.93-1.33-9.18-4-3.38-6.08-3.38-10.24v-.57ZM394.58,239.45c0,2.97.63,5.42,1.88,7.35,1.25,1.93,3.11,2.9,5.58,2.9s4.28-.97,5.54-2.9c1.26-1.93,1.89-4.38,1.89-7.35v-.57c0-2.93-.63-5.38-1.9-7.33-1.27-1.95-3.13-2.93-5.58-2.93s-4.28.98-5.53,2.93c-1.25,1.95-1.88,4.39-1.88,7.33v.57Z"/>
    <path class="cls-1" d="M431.52,249.7c1.57,0,2.94-.52,4.12-1.57,1.17-1.04,1.76-2.33,1.76-3.85h4.61l.08.16c.07,2.42-.97,4.56-3.11,6.44s-4.63,2.81-7.46,2.81c-3.94,0-6.97-1.34-9.12-4.01s-3.21-6.01-3.21-10v-1.09c0-3.95,1.08-7.27,3.22-9.96,2.15-2.68,5.18-4.03,9.1-4.03,3.12,0,5.68.97,7.68,2.9s2.96,4.31,2.89,7.12l-.05.16h-4.64c0-1.71-.56-3.16-1.67-4.36s-2.52-1.8-4.21-1.8c-2.5,0-4.33.97-5.48,2.91-1.15,1.94-1.72,4.29-1.72,7.06v1.09c0,2.81.57,5.19,1.7,7.12,1.13,1.93,2.96,2.9,5.5,2.9Z"/>
    <path class="cls-1" d="M465.51,249c-.88,1.5-2.01,2.66-3.39,3.47-1.38.81-2.98,1.22-4.79,1.22-3.06,0-5.44-.98-7.15-2.93-1.71-1.95-2.56-4.99-2.56-9.11v-16.52h5.1v16.57c0,2.99.44,5.04,1.32,6.16.88,1.12,2.25,1.68,4.12,1.68s3.31-.37,4.49-1.1c1.18-.73,2.08-1.77,2.68-3.12v-20.2h5.1v28.02h-4.58l-.34-4.14Z"/>
    <path class="cls-1" d="M482,225.13l.36,3.68c.92-1.33,2.08-2.36,3.48-3.09,1.41-.73,3.04-1.1,4.91-1.1s3.47.43,4.8,1.29,2.34,2.16,3.02,3.88c.9-1.61,2.07-2.87,3.51-3.79,1.44-.92,3.13-1.38,5.06-1.38,2.85,0,5.1.98,6.76,2.94,1.66,1.96,2.49,4.91,2.49,8.84v16.75h-5.1v-16.81c0-2.76-.47-4.72-1.42-5.87-.95-1.15-2.37-1.72-4.25-1.72-1.74,0-3.16.6-4.23,1.81-1.08,1.21-1.71,2.74-1.9,4.58v18h-5.13v-16.81c0-2.62-.49-4.54-1.46-5.76-.98-1.22-2.38-1.83-4.21-1.83-1.55,0-2.83.32-3.83.96-1,.64-1.77,1.54-2.3,2.69v20.74h-5.1v-28.02h4.56Z"/>
    <path class="cls-1" d="M534.97,253.69c-4.02,0-7.16-1.29-9.41-3.86-2.25-2.57-3.38-5.96-3.38-10.15v-1.14c0-4.02,1.16-7.35,3.48-9.98,2.32-2.63,5.16-3.95,8.51-3.95,3.75,0,6.56,1.17,8.43,3.5,1.87,2.33,2.81,5.43,2.81,9.3v2.69h-17.92l-.08.13c0,2.81.62,5.1,1.87,6.85,1.24,1.75,3.14,2.63,5.7,2.63,1.73,0,3.24-.25,4.54-.74,1.3-.49,2.42-1.17,3.35-2.03l1.99,3.31c-1,.97-2.32,1.78-3.96,2.45-1.64.66-3.62,1-5.93,1ZM534.16,228.62c-1.78,0-3.25.69-4.42,2.06-1.17,1.37-1.88,3.13-2.14,5.27l.05.13h12.64v-.42c0-2.04-.5-3.72-1.5-5.05-1-1.33-2.55-1.99-4.64-1.99Z"/>
    <path class="cls-1" d="M555.26,225.13l.36,4.17c.93-1.48,2.1-2.64,3.51-3.46,1.41-.82,3.01-1.23,4.8-1.23,3.02,0,5.36.88,7.02,2.65s2.49,4.5,2.49,8.2v17.69h-5.1v-17.58c0-2.47-.49-4.22-1.46-5.26-.97-1.04-2.46-1.55-4.47-1.55-1.57,0-2.9.32-4,.95-1.1.63-1.96,1.51-2.6,2.65v20.79h-5.1v-28.02h4.56Z"/>
    <path class="cls-1" d="M587.51,218.37v6.76h5.31v3.78h-5.31v17.01c0,1.31.27,2.24.82,2.77s1.26.8,2.16.8c.29,0,.62-.04.98-.12.36-.08.67-.16.91-.25l.7,3.5c-.38.31-.94.56-1.68.76-.74.2-1.48.3-2.2.3-2.07,0-3.72-.63-4.95-1.88-1.23-1.25-1.84-3.21-1.84-5.89v-17.01h-4.45v-3.78h4.45v-6.76h5.1Z"/>
    <path class="cls-1" d="M630.79,243.43h-14.19l-3.37,9.71h-5.21l13.59-37.7h4.38l13.31,37.7h-5.21l-3.31-9.71ZM618.08,239.16h11.26l-5.49-16.18h-.16l-5.62,16.18Z"/>
    <path class="cls-1" d="M648.29,225.13l.36,4.17c.93-1.48,2.1-2.64,3.51-3.46,1.41-.82,3.01-1.23,4.8-1.23,3.02,0,5.36.88,7.02,2.65s2.49,4.5,2.49,8.2v17.69h-5.1v-17.58c0-2.47-.49-4.22-1.46-5.26-.97-1.04-2.46-1.55-4.47-1.55-1.57,0-2.9.32-4,.95-1.1.63-1.96,1.51-2.6,2.65v20.79h-5.1v-28.02h4.56Z"/>
    <path class="cls-1" d="M690.67,253.15c-.17-.85-.31-1.59-.4-2.24s-.15-1.3-.17-1.96c-.95,1.35-2.19,2.47-3.72,3.38-1.53.91-3.17,1.36-4.93,1.36-2.92,0-5.14-.75-6.67-2.24-1.53-1.49-2.29-3.55-2.29-6.18s1.08-4.77,3.25-6.28c2.17-1.51,5.11-2.27,8.82-2.27h5.54v-2.77c0-1.64-.5-2.94-1.5-3.9-1-.96-2.42-1.44-4.25-1.44-1.66,0-3,.41-4.01,1.24-1.02.83-1.53,1.82-1.53,2.98l-4.84.05-.05-.16c-.12-2.04.83-3.9,2.86-5.59,2.03-1.69,4.65-2.54,7.86-2.54s5.73.81,7.67,2.42,2.9,3.94,2.9,6.98v13.49c0,1,.05,1.97.16,2.9.1.93.29,1.85.57,2.75h-5.26ZM682.2,249.42c1.85,0,3.51-.47,5-1.42,1.48-.95,2.45-2.04,2.9-3.26v-4.56h-5.72c-2.05,0-3.7.52-4.93,1.55-1.23,1.04-1.85,2.25-1.85,3.65,0,1.24.39,2.23,1.17,2.95.78.72,1.92,1.09,3.44,1.09Z"/>
    <path class="cls-1" d="M707.7,253.15h-5.1v-40.4h5.1v40.4Z"/>
    <path class="cls-1" d="M723.69,242.76l.91,3.52h.16l6.89-21.16h5.67l-11.78,32.32c-.71,1.88-1.72,3.52-3.04,4.92s-3.1,2.1-5.35,2.1c-.41,0-.94-.05-1.58-.14-.64-.09-1.13-.19-1.48-.27l.52-4.01c-.1-.02.2,0,.92.05.72.05,1.17.08,1.36.08,1.09,0,1.98-.48,2.67-1.45s1.27-2.04,1.74-3.21l1.22-2.93-10.41-27.45h5.7l5.9,17.63Z"/>
    <path class="cls-1" d="M757.65,245.61c0-1.12-.43-2.04-1.28-2.75s-2.47-1.33-4.86-1.86c-3.3-.71-5.83-1.7-7.6-2.98-1.77-1.28-2.65-2.99-2.65-5.13,0-2.28.97-4.23,2.91-5.85,1.94-1.62,4.46-2.43,7.55-2.43s5.75.86,7.72,2.59c1.97,1.73,2.91,3.74,2.82,6.03l-.05.16h-4.87c0-1.21-.53-2.3-1.59-3.29-1.06-.98-2.4-1.48-4.03-1.48-1.8,0-3.14.41-4.03,1.22s-1.33,1.78-1.33,2.9.38,1.96,1.15,2.56c.77.6,2.35,1.16,4.75,1.66,3.44.73,6.04,1.75,7.82,3.08s2.67,3.06,2.67,5.2c0,2.49-1.01,4.51-3.02,6.09-2.01,1.57-4.64,2.36-7.88,2.36-3.57,0-6.39-.91-8.44-2.72-2.05-1.81-3.03-3.93-2.93-6.34l.05-.16h4.87c.09,1.81.76,3.14,2.02,3.97,1.26.84,2.74,1.26,4.43,1.26,1.81,0,3.23-.38,4.26-1.15,1.03-.77,1.54-1.75,1.54-2.94Z"/>
    <path class="cls-1" d="M774.19,217.95h-5.1v-5.21h5.1v5.21ZM774.19,253.15h-5.1v-28.02h5.1v28.02Z"/>
    <path class="cls-1" d="M797.9,245.61c0-1.12-.43-2.04-1.28-2.75s-2.47-1.33-4.86-1.86c-3.3-.71-5.83-1.7-7.6-2.98-1.77-1.28-2.65-2.99-2.65-5.13,0-2.28.97-4.23,2.91-5.85,1.94-1.62,4.46-2.43,7.55-2.43s5.75.86,7.72,2.59c1.97,1.73,2.91,3.74,2.82,6.03l-.05.16h-4.87c0-1.21-.53-2.3-1.59-3.29-1.06-.98-2.4-1.48-4.03-1.48-1.8,0-3.14.41-4.03,1.22s-1.33,1.78-1.33,2.9.38,1.96,1.15,2.56c.77.6,2.35,1.16,4.75,1.66,3.44.73,6.04,1.75,7.82,3.08s2.67,3.06,2.67,5.2c0,2.49-1.01,4.51-3.02,6.09-2.01,1.57-4.64,2.36-7.88,2.36-3.57,0-6.39-.91-8.44-2.72-2.05-1.81-3.03-3.93-2.93-6.34l.05-.16h4.87c.09,1.81.76,3.14,2.02,3.97,1.26.84,2.74,1.26,4.43,1.26,1.81,0,3.23-.38,4.26-1.15,1.03-.77,1.54-1.75,1.54-2.94Z"/>
  </g>
  <g>
    <g>
      <path class="cls-2" d="M1.88,144.98c20.27-19.25,34.31-32.55,38.18-35.99.08-.07,5.86-5.52,8.42-9.22,1.53-2.21,2.16-3.55,4.42-6.46,2.43-3.13,3.86-4.94,6.35-6.46,2.23-1.37,2.65-.87,6.12-2.61.71-.36,2.33-1.2,6.12-3.86,2.12-1.49,4.93-3.47,8.62-6.58,6.65-5.6,9.97-8.4,10.77-10.77.31-.9.79-2.81,2.42-3.74.56-.32.86-.29,3.14-1.14.84-.31,1.11-.43,2.04-.79,2.98-1.16,3.34-1.16,4.31-1.59.61-.27,3.65-1.61,5.44-4.54.8-1.3.44-1.45,1.81-4.2.82-1.64,1.57-2.85,1.93-3.4,1.1-1.72,2.07-2.89,3.06-4.08,1.46-1.75,2.82-3.19,3.97-4.31,2.38-2.34,2.53-2.09,4.88-4.31,3.18-3,4.76-4.5,5.71-6.55.59-1.29,1.37-2.49,2.01-3.77.44-.88.78-1.61,1.59-2.04.69-.37,1.09-.19,1.81-.57.88-.46,1.23-1.23,1.59-1.81.35-.58,1.71-1.64,4.42-3.74,2.59-2.01,2.79-2.06,3.52-2.84.96-1.02.76-1.09,2.27-2.84,1.58-1.84,1.37-1.27,2.95-3.06.98-1.11,1.35-1.66,2.04-1.7.62-.04.7.39,1.81.79.72.26,1.46.33,2.95.45,1.29.11,1.41.04,1.7.23.67.44.63,1.25,1.02,2.72.33,1.25.45,1,1.13,2.95,1.08,3.07.59,3.12,1.25,4.08,1.02,1.48,1.99,1.06,3.4,2.84.36.46.47.71,1.47,2.72.64,1.29,1.3,2.56,1.93,3.86,2.54,5.26,4.47,6.98,6.8,12.48.48,1.13.82,2.06,1.02,2.61,1.27-.05,2.94.05,4.76.68.63.22,1.56.54,2.61,1.25,1.67,1.12,1.78,1.95,3.29,3.18,1.15.92,2.18,1.33,3.4,1.81,1.11.44,4.1,1.25,5.73,1.2.19,0,.72-.04,1.24.25.07.04.34.2.77.68.49.56.75,1.08.78,1.12.55,1.07,2.71,3.73,5.18,7.04,2.91,3.92,4.37,5.88,4.81,7.02.93,2.44.65,3.49,2.04,5.61,1.07,1.63,2.39,2.78,3.36,3.62,1.47,1.27,2.63,1.98,3.79,2.72,3.61,2.31,2.55,1.92,8.97,6.25,3.49,2.35,5.23,3.53,5.7,3.74,1.77.82,3.44,1.3,4.98,3.02.55.62.95,1.24,1.49,2.08,1.06,1.67,1.27,2.43,2.17,3.96.42.71,1.08,1.75,2.06,2.96,10.25,10.85,20.5,21.7,30.75,32.54-56.9,53.77-113.81,107.55-170.71,161.32C69.64,253.98,35.82,218.19,2,182.39"/>
      <path class="cls-3" d="M162.67,35.89c-1.41-3.53-2.11-5.79-2.47-7.36-.13-.59-.41-1.94-1.45-3.23-.46-.57-.92-.96-1.23-1.19-.1-.22-.23-.55-.3-.98-.11-.63-.03-1.12,0-1.36.03-.19.24-1.77.21-3.19,0,0-.03-1.38.13-2.55.01-.11.06-.39.26-.64.21-.26.5-.37.68-.43.59-.18,2.07-.5,4.05-.82"/>
      <path class="cls-2" d="M111.99,68.01c2.02-5.5,4.49-8.42,6.46-10.09.62-.52,1.59-1.26,2.72-2.61,2.05-2.45,2.25-4.07,3.52-6.35,2.2-3.96,3.69-2.83,6.24-6.8,1.83-2.86.83-3.08,3.63-8.62,1.88-3.72,2.24-3.43,2.72-5.22,0,0,.79-2.9,2.04-4.08.49-.46.88-.68.88-.68.61-.34.96-.31,1.55-.67.35-.22.57-.44.75-.62.53-.54,1.33-1.73,2.1-4.96.3-1.27.33-1.72.81-2.21.59-.6,1.2-.57,1.85-.88,1.42-.68,1.85-2.46,2.23-3.8.56-1.99,1.46-4.59,3.01-8.19"/>
      <path class="cls-2" d="M194.45,49.52c.29,1.06.69,2.54,1.13,4.31.59,2.35.89,3.52,1.13,4.76.78,3.92.33,3.88,1.02,6.01.49,1.49.89,2.08.91,3.4.01,1.09-.25,1.57,0,2.61.27,1.12.72,1.11,1.02,2.15.43,1.49-.3,2.09,0,3.33.25,1.02.99,1.6,2.27,2.56,2.6,1.97,3.87,1.68,5.56,3.18,1.38,1.23,1.89,2.63,2.27,3.52,1.33,3.15,5.55,10.64,14.06,24.61"/>
      <path class="cls-2" d="M101.78,90.58c-.12-6.13.8-10.37,1.7-13.16.34-1.04,1.23-3.6,1.59-7.15.28-2.77.08-4.59,0-5.22-.27-2.07-.47-1.22-1.59-5.67-.18-.72-.47-1.14-.79-1.47-1.46-1.56-5.19-.17-5.7.03"/>
      <line class="cls-2" x1="2" y1="144.7" x2="2.11" y2="182.61"/>
      <line class="cls-2" x1="20.91" y1="163.07" x2="2.24" y2="144.94"/>
      <line class="cls-2" x1="2.11" y1="182.3" x2="20.63" y2="162.8"/>
    </g>
    <path class="cls-2" d="M63.52,144.98c20.27-19.25,34.31-32.55,38.18-35.99.08-.07,5.86-5.52,8.42-9.22,1.53-2.21,2.16-3.55,4.42-6.46,2.43-3.13,3.86-4.94,6.35-6.46,2.23-1.37,2.65-.87,6.12-2.61.71-.36,2.33-1.2,6.12-3.86,2.12-1.49,4.93-3.47,8.62-6.58,6.65-5.6,9.97-8.4,10.77-10.77.31-.9.79-2.81,2.42-3.74.56-.32.86-.29,3.14-1.14.84-.31,1.11-.43,2.04-.79,2.98-1.16,3.34-1.16,4.31-1.59.61-.27,3.65-1.61,5.44-4.54.8-1.3.44-1.45,1.81-4.2.82-1.64,1.57-2.85,1.93-3.4,1.1-1.72,2.07-2.89,3.06-4.08,1.46-1.75,2.82-3.19,3.97-4.31,2.38-2.34,2.53-2.09,4.88-4.31,3.18-3,4.76-4.5,5.71-6.55.59-1.29,1.37-2.49,2.01-3.77.44-.88.78-1.61,1.59-2.04.69-.37,1.09-.19,1.81-.57.88-.46,1.23-1.23,1.59-1.81.35-.58,1.71-1.64,4.42-3.74,2.59-2.01,2.79-2.06,3.52-2.84.96-1.02.76-1.09,2.27-2.84,1.58-1.84,1.37-1.27,2.95-3.06.98-1.11,1.35-1.66,2.04-1.7.62-.04.7.39,1.81.79.72.26,1.46.33,2.95.45,1.29.11,1.41.04,1.7.23.67.44.63,1.25,1.02,2.72.33,1.25.45,1,1.13,2.95,1.08,3.07.59,3.12,1.25,4.08,1.02,1.48,1.99,1.06,3.4,2.84.36.46.47.71,1.47,2.72.64,1.29,1.3,2.56,1.93,3.86,2.54,5.26,4.47,6.98,6.8,12.48.48,1.13.82,2.06,1.02,2.61,1.27-.05,2.94.05,4.76.68.63.22,1.56.54,2.61,1.25,1.67,1.12,1.78,1.95,3.29,3.18,1.15.92,2.18,1.33,3.4,1.81,1.11.44,4.1,1.25,5.73,1.2.19,0,.72-.04,1.24.25.07.04.34.2.77.68.49.56.75,1.08.78,1.12.55,1.07,2.71,3.73,5.18,7.04,2.91,3.92,4.37,5.88,4.81,7.02.93,2.44.65,3.49,2.04,5.61,1.07,1.63,2.39,2.78,3.36,3.62,1.47,1.27,2.63,1.98,3.79,2.72,3.61,2.31,2.55,1.92,8.97,6.25,3.49,2.35,5.23,3.53,5.7,3.74,1.77.82,3.44,1.3,4.98,3.02.55.62.95,1.24,1.49,2.08,1.06,1.67,1.27,2.43,2.17,3.96.42.71,1.08,1.75,2.06,2.96,10.25,10.85,20.5,21.7,30.75,32.54-56.9,53.77-113.81,107.55-170.71,161.32-33.82-35.8-67.64-71.59-101.46-107.39"/>
    <path class="cls-3" d="M224.32,35.89c-1.41-3.53-2.11-5.79-2.47-7.36-.13-.59-.41-1.94-1.45-3.23-.46-.57-.92-.96-1.23-1.19-.1-.22-.23-.55-.3-.98-.11-.63-.03-1.12,0-1.36.03-.19.24-1.77.21-3.19,0,0-.03-1.38.13-2.55.01-.11.06-.39.26-.64.21-.26.5-.37.68-.43.59-.18,2.07-.5,4.05-.82"/>
    <path class="cls-2" d="M173.64,68.01c2.02-5.5,4.49-8.42,6.46-10.09.62-.52,1.59-1.26,2.72-2.61,2.05-2.45,2.25-4.07,3.52-6.35,2.2-3.96,3.69-2.83,6.24-6.8,1.83-2.86.83-3.08,3.63-8.62,1.88-3.72,2.24-3.43,2.72-5.22,0,0,.79-2.9,2.04-4.08.49-.46.88-.68.88-.68.61-.34.96-.31,1.55-.67.35-.22.57-.44.75-.62.53-.54,1.33-1.73,2.1-4.96.3-1.27.33-1.72.81-2.21.59-.6,1.2-.57,1.85-.88,1.42-.68,1.85-2.46,2.23-3.8.56-1.99,1.46-4.59,3.01-8.19"/>
    <path class="cls-2" d="M237.7,37.79c.29,1.06.69,2.54,1.13,4.31.59,2.35.89,3.52,1.13,4.76.78,3.92.33,3.88,1.02,6.01.49,1.49.89,2.08.91,3.4.01,1.09-.25,1.57,0,2.61.27,1.12.72,1.11,1.02,2.15.43,1.49-.3,2.09,0,3.33.25,1.02.99,1.6,2.27,2.56,2.6,1.97,3.87,1.68,5.56,3.18,1.38,1.23,1.89,2.63,2.27,3.52,1.33,3.15,5.55,10.64,14.06,24.61"/>
    <path class="cls-2" d="M163.43,90.58c-.12-6.13.8-10.37,1.7-13.16.34-1.04,1.23-3.6,1.59-7.15.28-2.77.08-4.59,0-5.22-.27-2.07-.47-1.22-1.59-5.67-.18-.72-.47-1.14-.79-1.47-1.46-1.56-5.19-.17-5.7.03"/>
    <line class="cls-2" x1="63.64" y1="144.7" x2="63.75" y2="182.61"/>
    <line class="cls-2" x1="82.56" y1="163.07" x2="63.89" y2="144.94"/>
    <line class="cls-2" x1="63.75" y1="182.3" x2="82.27" y2="162.8"/>
  </g>
</svg>