<?xml version="1.0" encoding="UTF-8"?>
<svg id="Capa_1" data-name="Capa 1" xmlns="http://www.w3.org/2000/svg" viewBox="0 0 808.82 289.59">
  <defs>
    <style>
      .cls-1 {
        font-family: Roboto-Regular, Roboto;
        font-size: 53.03px;
        letter-spacing: 0em;
      }

      .cls-1, .cls-2 {
        fill: #3a5ba6;
      }

      .cls-3 {
        fill: #fff;
      }

      .cls-3, .cls-4 {
        stroke: #3a5ba6;
        stroke-miterlimit: 10;
        stroke-width: 1.5px;
      }

      .cls-4 {
        fill: none;
      }
    </style>
  </defs>
  <g>
    <path class="cls-2" d="M351.45,113.31v-11.98c2.17,1.82,4.53,3.19,7.07,4.1,2.55.91,5.12,1.36,7.71,1.36,1.52,0,2.85-.14,3.99-.41s2.08-.65,2.84-1.14c.76-.49,1.33-1.06,1.7-1.72.37-.66.56-1.38.56-2.15,0-1.05-.3-1.98-.9-2.81-.6-.82-1.42-1.58-2.45-2.28-1.04-.7-2.27-1.37-3.69-2.02-1.42-.65-2.96-1.31-4.6-1.98-4.19-1.75-7.32-3.88-9.38-6.4-2.06-2.52-3.09-5.56-3.09-9.13,0-2.79.56-5.2,1.69-7.21,1.12-2.01,2.65-3.66,4.58-4.96,1.93-1.3,4.17-2.25,6.72-2.86,2.55-.61,5.24-.92,8.09-.92s5.27.17,7.43.5c2.16.34,4.15.85,5.97,1.55v11.19c-.9-.62-1.88-1.17-2.94-1.65-1.06-.47-2.15-.87-3.28-1.18-1.12-.31-2.24-.54-3.35-.69s-2.16-.22-3.16-.22c-1.37,0-2.62.13-3.74.39-1.12.26-2.07.63-2.84,1.1-.77.47-1.37,1.04-1.8,1.7-.42.66-.64,1.4-.64,2.23,0,.9.24,1.7.71,2.41.48.71,1.15,1.39,2.02,2.02.87.64,1.93,1.26,3.18,1.87,1.25.61,2.66,1.24,4.23,1.89,2.15.9,4.07,1.85,5.78,2.86,1.71,1.01,3.18,2.15,4.4,3.42,1.22,1.27,2.16,2.73,2.81,4.36.65,1.63.97,3.54.97,5.71,0,2.99-.57,5.51-1.7,7.54-1.14,2.03-2.68,3.68-4.62,4.94-1.95,1.26-4.21,2.16-6.79,2.71-2.58.55-5.31.83-8.18.83s-5.75-.25-8.4-.75c-2.66-.5-4.96-1.25-6.91-2.25Z"/>
    <path class="cls-2" d="M399.33,113.31v-11.98c2.17,1.82,4.53,3.19,7.07,4.1s5.12,1.36,7.71,1.36c1.52,0,2.85-.14,3.99-.41s2.08-.65,2.84-1.14c.76-.49,1.33-1.06,1.7-1.72.37-.66.56-1.38.56-2.15,0-1.05-.3-1.98-.9-2.81-.6-.82-1.42-1.58-2.45-2.28-1.04-.7-2.27-1.37-3.69-2.02s-2.96-1.31-4.6-1.98c-4.19-1.75-7.32-3.88-9.38-6.4-2.06-2.52-3.09-5.56-3.09-9.13,0-2.79.56-5.2,1.69-7.21,1.12-2.01,2.65-3.66,4.58-4.96,1.93-1.3,4.17-2.25,6.72-2.86,2.55-.61,5.24-.92,8.09-.92s5.27.17,7.43.5c2.16.34,4.15.85,5.97,1.55v11.19c-.9-.62-1.88-1.17-2.94-1.65-1.06-.47-2.15-.87-3.28-1.18-1.12-.31-2.24-.54-3.35-.69s-2.16-.22-3.16-.22c-1.37,0-2.62.13-3.74.39-1.12.26-2.07.63-2.84,1.1-.77.47-1.37,1.04-1.8,1.7-.42.66-.64,1.4-.64,2.23,0,.9.24,1.7.71,2.41.48.71,1.15,1.39,2.02,2.02.87.64,1.93,1.26,3.18,1.87,1.25.61,2.66,1.24,4.23,1.89,2.15.9,4.07,1.85,5.78,2.86,1.71,1.01,3.18,2.15,4.4,3.42,1.22,1.27,2.16,2.73,2.81,4.36s.97,3.54.97,5.71c0,2.99-.57,5.51-1.7,7.54-1.14,2.03-2.68,3.68-4.62,4.94s-4.21,2.16-6.79,2.71c-2.58.55-5.31.83-8.18.83s-5.75-.25-8.4-.75c-2.66-.5-4.96-1.25-6.91-2.25Z"/>
    <path class="cls-2" d="M449.68,115.37v-53.68h19.02c19.07,0,28.6,8.72,28.6,26.17,0,8.36-2.6,15.03-7.81,20.03-5.2,4.99-12.13,7.49-20.79,7.49h-19.02ZM461.77,71.54v34.03h5.99c5.24,0,9.35-1.57,12.34-4.72,2.98-3.14,4.47-7.42,4.47-12.84,0-5.12-1.48-9.14-4.44-12.07-2.96-2.93-7.11-4.4-12.45-4.4h-5.92Z"/>
    <path class="cls-2" d="M557.15,115.37h-13.18l-3.82-11.94h-19.09l-3.78,11.94h-13.1l19.54-53.68h14.34l19.09,53.68ZM537.38,94.15l-5.77-18.04c-.42-1.35-.72-2.96-.9-4.83h-.3c-.12,1.57-.44,3.13-.93,4.68l-5.84,18.19h13.74Z"/>
    <path class="cls-2" d="M628.88,105.57h22.76v9.81h-35.71v-4.04c0-2.75.46-5.21,1.39-7.39.92-2.18,2.08-4.14,3.48-5.88,1.4-1.73,2.92-3.27,4.58-4.6,1.66-1.34,3.24-2.54,4.74-3.61,1.57-1.12,2.95-2.2,4.14-3.22,1.18-1.02,2.18-2.04,2.99-3.05.81-1.01,1.42-2.03,1.82-3.07.4-1.04.6-2.14.6-3.31,0-2.3-.65-4.03-1.95-5.2-1.3-1.17-3.28-1.76-5.95-1.76-4.62,0-9.03,1.83-13.25,5.5v-10.41c4.67-3.02,9.93-4.53,15.8-4.53,2.72,0,5.16.36,7.32,1.07,2.16.71,3.99,1.73,5.48,3.05,1.5,1.32,2.64,2.93,3.42,4.81.79,1.88,1.18,3.99,1.18,6.31,0,2.47-.38,4.67-1.14,6.59-.76,1.92-1.77,3.67-3.03,5.24-1.26,1.57-2.71,3.01-4.36,4.32-1.65,1.31-3.36,2.58-5.13,3.8-1.2.85-2.35,1.69-3.46,2.53-1.11.84-2.09,1.66-2.94,2.47-.85.81-1.52,1.6-2.02,2.38-.5.77-.75,1.51-.75,2.21Z"/>
    <path class="cls-2" d="M683.57,116.31c-12.78,0-19.17-8.97-19.17-26.91,0-9.31,1.73-16.4,5.18-21.28,3.46-4.88,8.47-7.32,15.03-7.32,12.48,0,18.72,9.12,18.72,27.36,0,9.08-1.7,16.05-5.11,20.89-3.41,4.84-8.29,7.26-14.65,7.26ZM684.09,69.82c-5.12,0-7.67,6.43-7.67,19.28,0,12.1,2.51,18.15,7.52,18.15s7.34-6.24,7.34-18.72-2.4-18.72-7.19-18.72Z"/>
    <path class="cls-2" d="M726.88,105.57h22.76v9.81h-35.71v-4.04c0-2.75.46-5.21,1.39-7.39.92-2.18,2.08-4.14,3.48-5.88,1.4-1.73,2.92-3.27,4.58-4.6,1.66-1.34,3.24-2.54,4.74-3.61,1.57-1.12,2.95-2.2,4.14-3.22,1.18-1.02,2.18-2.04,2.99-3.05.81-1.01,1.42-2.03,1.82-3.07.4-1.04.6-2.14.6-3.31,0-2.3-.65-4.03-1.95-5.2-1.3-1.17-3.28-1.76-5.95-1.76-4.62,0-9.03,1.83-13.25,5.5v-10.41c4.67-3.02,9.93-4.53,15.8-4.53,2.72,0,5.16.36,7.32,1.07,2.16.71,3.99,1.73,5.48,3.05,1.5,1.32,2.64,2.93,3.42,4.81.79,1.88,1.18,3.99,1.18,6.31,0,2.47-.38,4.67-1.14,6.59-.76,1.92-1.77,3.67-3.03,5.24-1.26,1.57-2.71,3.01-4.36,4.32-1.65,1.31-3.36,2.58-5.13,3.8-1.2.85-2.35,1.69-3.46,2.53-1.11.84-2.09,1.66-2.94,2.47-.85.81-1.52,1.6-2.02,2.38-.5.77-.75,1.51-.75,2.21Z"/>
    <path class="cls-2" d="M801.38,97.52c0,2.65-.46,5.12-1.38,7.41-.92,2.29-2.21,4.28-3.86,5.97-1.65,1.68-3.61,3.01-5.88,3.97-2.27.96-4.75,1.44-7.45,1.44-3.02,0-5.72-.56-8.1-1.69-2.38-1.12-4.4-2.75-6.04-4.89-1.65-2.13-2.91-4.75-3.78-7.84-.87-3.09-1.31-6.6-1.31-10.52,0-4.62.57-8.8,1.7-12.56,1.14-3.76,2.76-6.97,4.87-9.64,2.11-2.67,4.66-4.74,7.66-6.19,2.99-1.46,6.36-2.19,10.11-2.19,4.14,0,7.36.49,9.66,1.46v9.88c-2.72-1.55-5.69-2.32-8.91-2.32-2,0-3.81.39-5.43,1.16-1.62.77-3.01,1.87-4.18,3.29-1.16,1.42-2.07,3.14-2.73,5.15-.66,2.01-1.02,4.25-1.07,6.72h.22c2.55-3.52,6.3-5.28,11.27-5.28,2.22,0,4.23.4,6.03,1.2,1.8.8,3.33,1.93,4.6,3.39,1.27,1.46,2.26,3.21,2.96,5.26.7,2.05,1.05,4.32,1.05,6.81ZM789.81,98.26c0-5.76-2.36-8.65-7.08-8.65-1.07,0-2.05.2-2.92.6s-1.62.96-2.25,1.69c-.62.72-1.1,1.58-1.44,2.56-.34.99-.5,2.08-.5,3.28,0,1.32.17,2.56.52,3.7.35,1.15.84,2.15,1.48,3.01.64.86,1.39,1.54,2.27,2.04.87.5,1.85.75,2.92.75s2.04-.22,2.9-.65c.86-.44,1.6-1.05,2.21-1.83.61-.79,1.08-1.73,1.4-2.84.32-1.11.49-2.33.49-3.65Z"/>
  </g>
  <text class="cls-1" transform="translate(350.22 188.26)"><tspan x="0" y="0">Summer School on </tspan><tspan x="0" y="63.64">Document Analysis</tspan></text>
  <g>
    <g>
      <path class="cls-3" d="M.63,143.73c20.27-19.25,34.31-32.55,38.18-35.99.08-.07,5.86-5.52,8.42-9.22,1.53-2.21,2.16-3.55,4.42-6.46,2.43-3.13,3.86-4.94,6.35-6.46,2.23-1.37,2.65-.87,6.12-2.61.71-.36,2.33-1.2,6.12-3.86,2.12-1.49,4.93-3.47,8.62-6.58,6.65-5.6,9.97-8.4,10.77-10.77.31-.9.79-2.81,2.42-3.74.56-.32.86-.29,3.14-1.14.84-.31,1.11-.43,2.04-.79,2.98-1.16,3.34-1.16,4.31-1.59.61-.27,3.65-1.61,5.44-4.54.8-1.3.44-1.45,1.81-4.2.82-1.64,1.57-2.85,1.93-3.4,1.1-1.72,2.07-2.89,3.06-4.08,1.46-1.75,2.82-3.19,3.97-4.31,2.38-2.34,2.53-2.09,4.88-4.31,3.18-3,4.76-4.5,5.71-6.55.59-1.29,1.37-2.49,2.01-3.77.44-.88.78-1.61,1.59-2.04.69-.37,1.09-.19,1.81-.57.88-.46,1.23-1.23,1.59-1.81.35-.58,1.71-1.64,4.42-3.74,2.59-2.01,2.79-2.06,3.52-2.84.96-1.02.76-1.09,2.27-2.84,1.58-1.84,1.37-1.27,2.95-3.06.98-1.11,1.35-1.66,2.04-1.7.62-.04.7.39,1.81.79.72.26,1.46.33,2.95.45,1.29.11,1.41.04,1.7.23.67.44.63,1.25,1.02,2.72.33,1.25.45,1,1.13,2.95,1.08,3.07.59,3.12,1.25,4.08,1.02,1.48,1.99,1.06,3.4,2.84.36.46.47.71,1.47,2.72.64,1.29,1.3,2.56,1.93,3.86,2.54,5.26,4.47,6.98,6.8,12.48.48,1.13.82,2.06,1.02,2.61,1.27-.05,2.94.05,4.76.68.63.22,1.56.54,2.61,1.25,1.67,1.12,1.78,1.95,3.29,3.18,1.15.92,2.18,1.33,3.4,1.81,1.11.44,4.1,1.25,5.73,1.2.19,0,.72-.04,1.24.25.07.04.34.2.77.68.49.56.75,1.08.78,1.12.55,1.07,2.71,3.73,5.18,7.04,2.91,3.92,4.37,5.88,4.81,7.02.93,2.44.65,3.49,2.04,5.61,1.07,1.63,2.39,2.78,3.36,3.62,1.47,1.27,2.63,1.98,3.79,2.72,3.61,2.31,2.55,1.92,8.97,6.25,3.49,2.35,5.23,3.53,5.7,3.74,1.77.82,3.44,1.3,4.98,3.02.55.62.95,1.24,1.49,2.08,1.06,1.67,1.27,2.43,2.17,3.96.42.71,1.08,1.75,2.06,2.96,10.25,10.85,20.5,21.7,30.75,32.54-56.9,53.77-113.81,107.55-170.71,161.32C68.39,252.73,34.57,216.94.75,181.14"/>
      <path class="cls-4" d="M161.42,34.64c-1.41-3.53-2.11-5.79-2.47-7.36-.13-.59-.41-1.94-1.45-3.23-.46-.57-.92-.96-1.23-1.19-.1-.22-.23-.55-.3-.98-.11-.63-.03-1.12,0-1.36.03-.19.24-1.77.21-3.19,0,0-.03-1.38.13-2.55.01-.11.06-.39.26-.64.21-.26.5-.37.68-.43.59-.18,2.07-.5,4.05-.82"/>
      <path class="cls-3" d="M110.74,66.76c2.02-5.5,4.49-8.42,6.46-10.09.62-.52,1.59-1.26,2.72-2.61,2.05-2.45,2.25-4.07,3.52-6.35,2.2-3.96,3.69-2.83,6.24-6.8,1.83-2.86.83-3.08,3.63-8.62,1.88-3.72,2.24-3.43,2.72-5.22,0,0,.79-2.9,2.04-4.08.49-.46.88-.68.88-.68.61-.34.96-.31,1.55-.67.35-.22.57-.44.75-.62.53-.54,1.33-1.73,2.1-4.96.3-1.27.33-1.72.81-2.21.59-.6,1.2-.57,1.85-.88,1.42-.68,1.85-2.46,2.23-3.8.56-1.99,1.46-4.59,3.01-8.19"/>
      <path class="cls-3" d="M193.2,48.27c.29,1.06.69,2.54,1.13,4.31.59,2.35.89,3.52,1.13,4.76.78,3.92.33,3.88,1.02,6.01.49,1.49.89,2.08.91,3.4.01,1.09-.25,1.57,0,2.61.27,1.12.72,1.11,1.02,2.15.43,1.49-.3,2.09,0,3.33.25,1.02.99,1.6,2.27,2.56,2.6,1.97,3.87,1.68,5.56,3.18,1.38,1.23,1.89,2.63,2.27,3.52,1.33,3.15,5.55,10.64,14.06,24.61"/>
      <path class="cls-3" d="M100.53,89.33c-.12-6.13.8-10.37,1.7-13.16.34-1.04,1.23-3.6,1.59-7.15.28-2.77.08-4.59,0-5.22-.27-2.07-.47-1.22-1.59-5.67-.18-.72-.47-1.14-.79-1.47-1.46-1.56-5.19-.17-5.7.03"/>
      <line class="cls-3" x1=".75" y1="143.45" x2=".86" y2="181.36"/>
      <line class="cls-3" x1="19.66" y1="161.82" x2=".99" y2="143.69"/>
      <line class="cls-3" x1=".86" y1="181.05" x2="19.38" y2="161.55"/>
    </g>
    <path class="cls-3" d="M62.27,143.73c20.27-19.25,34.31-32.55,38.18-35.99.08-.07,5.86-5.52,8.42-9.22,1.53-2.21,2.16-3.55,4.42-6.46,2.43-3.13,3.86-4.94,6.35-6.46,2.23-1.37,2.65-.87,6.12-2.61.71-.36,2.33-1.2,6.12-3.86,2.12-1.49,4.93-3.47,8.62-6.58,6.65-5.6,9.97-8.4,10.77-10.77.31-.9.79-2.81,2.42-3.74.56-.32.86-.29,3.14-1.14.84-.31,1.11-.43,2.04-.79,2.98-1.16,3.34-1.16,4.31-1.59.61-.27,3.65-1.61,5.44-4.54.8-1.3.44-1.45,1.81-4.2.82-1.64,1.57-2.85,1.93-3.4,1.1-1.72,2.07-2.89,3.06-4.08,1.46-1.75,2.82-3.19,3.97-4.31,2.38-2.34,2.53-2.09,4.88-4.31,3.18-3,4.76-4.5,5.71-6.55.59-1.29,1.37-2.49,2.01-3.77.44-.88.78-1.61,1.59-2.04.69-.37,1.09-.19,1.81-.57.88-.46,1.23-1.23,1.59-1.81.35-.58,1.71-1.64,4.42-3.74,2.59-2.01,2.79-2.06,3.52-2.84.96-1.02.76-1.09,2.27-2.84,1.58-1.84,1.37-1.27,2.95-3.06.98-1.11,1.35-1.66,2.04-1.7.62-.04.7.39,1.81.79.72.26,1.46.33,2.95.45,1.29.11,1.41.04,1.7.23.67.44.63,1.25,1.02,2.72.33,1.25.45,1,1.13,2.95,1.08,3.07.59,3.12,1.25,4.08,1.02,1.48,1.99,1.06,3.4,2.84.36.46.47.71,1.47,2.72.64,1.29,1.3,2.56,1.93,3.86,2.54,5.26,4.47,6.98,6.8,12.48.48,1.13.82,2.06,1.02,2.61,1.27-.05,2.94.05,4.76.68.63.22,1.56.54,2.61,1.25,1.67,1.12,1.78,1.95,3.29,3.18,1.15.92,2.18,1.33,3.4,1.81,1.11.44,4.1,1.25,5.73,1.2.19,0,.72-.04,1.24.25.07.04.34.2.77.68.49.56.75,1.08.78,1.12.55,1.07,2.71,3.73,5.18,7.04,2.91,3.92,4.37,5.88,4.81,7.02.93,2.44.65,3.49,2.04,5.61,1.07,1.63,2.39,2.78,3.36,3.62,1.47,1.27,2.63,1.98,3.79,2.72,3.61,2.31,2.55,1.92,8.97,6.25,3.49,2.35,5.23,3.53,5.7,3.74,1.77.82,3.44,1.3,4.98,3.02.55.62.95,1.24,1.49,2.08,1.06,1.67,1.27,2.43,2.17,3.96.42.71,1.08,1.75,2.06,2.96,10.25,10.85,20.5,21.7,30.75,32.54-56.9,53.77-113.81,107.55-170.71,161.32-33.82-35.8-67.64-71.59-101.46-107.39"/>
    <path class="cls-4" d="M223.07,34.64c-1.41-3.53-2.11-5.79-2.47-7.36-.13-.59-.41-1.94-1.45-3.23-.46-.57-.92-.96-1.23-1.19-.1-.22-.23-.55-.3-.98-.11-.63-.03-1.12,0-1.36.03-.19.24-1.77.21-3.19,0,0-.03-1.38.13-2.55.01-.11.06-.39.26-.64.21-.26.5-.37.68-.43.59-.18,2.07-.5,4.05-.82"/>
    <path class="cls-3" d="M172.39,66.76c2.02-5.5,4.49-8.42,6.46-10.09.62-.52,1.59-1.26,2.72-2.61,2.05-2.45,2.25-4.07,3.52-6.35,2.2-3.96,3.69-2.83,6.24-6.8,1.83-2.86.83-3.08,3.63-8.62,1.88-3.72,2.24-3.43,2.72-5.22,0,0,.79-2.9,2.04-4.08.49-.46.88-.68.88-.68.61-.34.96-.31,1.55-.67.35-.22.57-.44.75-.62.53-.54,1.33-1.73,2.1-4.96.3-1.27.33-1.72.81-2.21.59-.6,1.2-.57,1.85-.88,1.42-.68,1.85-2.46,2.23-3.8.56-1.99,1.46-4.59,3.01-8.19"/>
    <path class="cls-3" d="M236.45,36.54c.29,1.06.69,2.54,1.13,4.31.59,2.35.89,3.52,1.13,4.76.78,3.92.33,3.88,1.02,6.01.49,1.49.89,2.08.91,3.4.01,1.09-.25,1.57,0,2.61.27,1.12.72,1.11,1.02,2.15.43,1.49-.3,2.09,0,3.33.25,1.02.99,1.6,2.27,2.56,2.6,1.97,3.87,1.68,5.56,3.18,1.38,1.23,1.89,2.63,2.27,3.52,1.33,3.15,5.55,10.64,14.06,24.61"/>
    <path class="cls-3" d="M162.18,89.33c-.12-6.13.8-10.37,1.7-13.16.34-1.04,1.23-3.6,1.59-7.15.28-2.77.08-4.59,0-5.22-.27-2.07-.47-1.22-1.59-5.67-.18-.72-.47-1.14-.79-1.47-1.46-1.56-5.19-.17-5.7.03"/>
    <line class="cls-3" x1="62.39" y1="143.45" x2="62.5" y2="181.36"/>
    <line class="cls-3" x1="81.31" y1="161.82" x2="62.64" y2="143.69"/>
    <line class="cls-3" x1="62.5" y1="181.05" x2="81.02" y2="161.55"/>
  </g>
</svg>