<?xml version="1.0" encoding="UTF-8"?>
<svg id="Capa_1" data-name="Capa 1" xmlns="http://www.w3.org/2000/svg" viewBox="0 0 737.63 208.06">
  <defs>
    <style>
      .cls-1 {
        fill: #3a5ba6;
      }

      .cls-2 {
        fill: #fff;
      }

      .cls-2, .cls-3 {
        stroke: #3a5ba6;
        stroke-miterlimit: 10;
        stroke-width: 4px;
      }

      .cls-3 {
        fill: none;
      }
    </style>
  </defs>
  <g>
    <path class="cls-1" d="M238.54,169.08v-13.29c2.41,2.02,5.02,3.54,7.85,4.55,2.82,1.01,5.68,1.51,8.56,1.51,1.69,0,3.16-.15,4.42-.46s2.31-.73,3.16-1.27c.84-.54,1.47-1.18,1.89-1.91.41-.73.62-1.53.62-2.39,0-1.16-.33-2.2-1-3.12-.66-.91-1.57-1.76-2.72-2.53-1.15-.77-2.51-1.52-4.09-2.24-1.58-.72-3.28-1.45-5.11-2.2-4.65-1.94-8.12-4.3-10.4-7.1-2.28-2.8-3.43-6.17-3.43-10.13,0-3.1.62-5.76,1.87-7.99,1.24-2.23,2.94-4.06,5.09-5.5,2.15-1.44,4.63-2.5,7.45-3.18,2.82-.68,5.81-1.02,8.97-1.02s5.85.19,8.24.56c2.39.37,4.6.95,6.62,1.72v12.41c-1-.69-2.08-1.3-3.26-1.83-1.18-.53-2.39-.96-3.63-1.31-1.24-.35-2.48-.6-3.72-.77s-2.4-.25-3.51-.25c-1.52,0-2.91.14-4.15.44-1.25.29-2.3.7-3.16,1.22-.86.53-1.52,1.16-1.99,1.89-.47.73-.71,1.56-.71,2.47,0,1,.26,1.89.79,2.68.53.79,1.27,1.54,2.24,2.24.97.71,2.14,1.4,3.53,2.08,1.38.68,2.95,1.38,4.69,2.1,2.38,1,4.52,2.05,6.42,3.18,1.9,1.12,3.52,2.39,4.88,3.8,1.36,1.41,2.39,3.02,3.12,4.84.72,1.81,1.08,3.92,1.08,6.33,0,3.32-.63,6.11-1.89,8.37-1.26,2.26-2.97,4.08-5.13,5.48-2.16,1.4-4.67,2.4-7.54,3.01-2.86.61-5.89.92-9.07.92s-6.37-.28-9.32-.83c-2.95-.55-5.5-1.38-7.66-2.49Z"/>
    <path class="cls-1" d="M291.65,169.08v-13.29c2.41,2.02,5.02,3.54,7.85,4.55s5.68,1.51,8.56,1.51c1.69,0,3.16-.15,4.42-.46s2.31-.73,3.16-1.27c.84-.54,1.47-1.18,1.89-1.91.41-.73.62-1.53.62-2.39,0-1.16-.33-2.2-1-3.12-.66-.91-1.57-1.76-2.72-2.53-1.15-.77-2.51-1.52-4.09-2.24s-3.28-1.45-5.11-2.2c-4.65-1.94-8.12-4.3-10.4-7.1-2.28-2.8-3.43-6.17-3.43-10.13,0-3.1.62-5.76,1.87-7.99,1.24-2.23,2.94-4.06,5.09-5.5,2.15-1.44,4.63-2.5,7.45-3.18,2.82-.68,5.81-1.02,8.97-1.02s5.85.19,8.24.56c2.39.37,4.6.95,6.62,1.72v12.41c-1-.69-2.08-1.3-3.26-1.83-1.18-.53-2.39-.96-3.63-1.31-1.24-.35-2.48-.6-3.72-.77s-2.4-.25-3.51-.25c-1.52,0-2.91.14-4.15.44-1.25.29-2.3.7-3.16,1.22-.86.53-1.52,1.16-1.99,1.89-.47.73-.71,1.56-.71,2.47,0,1,.26,1.89.79,2.68.53.79,1.27,1.54,2.24,2.24.97.71,2.14,1.4,3.53,2.08,1.38.68,2.95,1.38,4.69,2.1,2.38,1,4.52,2.05,6.42,3.18,1.9,1.12,3.52,2.39,4.88,3.8,1.36,1.41,2.39,3.02,3.12,4.84s1.08,3.92,1.08,6.33c0,3.32-.63,6.11-1.89,8.37-1.26,2.26-2.97,4.08-5.13,5.48s-4.67,2.4-7.54,3.01c-2.86.61-5.89.92-9.07.92s-6.37-.28-9.32-.83c-2.95-.55-5.5-1.38-7.66-2.49Z"/>
    <path class="cls-1" d="M347.5,171.36v-59.54h21.09c21.15,0,31.72,9.67,31.72,29.03,0,9.27-2.89,16.68-8.66,22.21-5.77,5.54-13.46,8.3-23.07,8.3h-21.09ZM360.91,122.74v37.74h6.64c5.81,0,10.37-1.74,13.68-5.23,3.31-3.49,4.96-8.24,4.96-14.24,0-5.68-1.64-10.14-4.92-13.39-3.28-3.25-7.88-4.88-13.8-4.88h-6.56Z"/>
    <path class="cls-1" d="M466.72,171.36h-14.62l-4.24-13.24h-21.17l-4.19,13.24h-14.53l21.67-59.54h15.9l21.18,59.54ZM444.79,147.82l-6.4-20.02c-.47-1.49-.8-3.28-1-5.36h-.33c-.14,1.74-.48,3.47-1.04,5.19l-6.48,20.18h15.24Z"/>
    <path class="cls-1" d="M546.29,160.48h25.25v10.88h-39.61v-4.48c0-3.05.51-5.78,1.54-8.2,1.02-2.42,2.31-4.59,3.86-6.52,1.55-1.92,3.24-3.63,5.09-5.11,1.84-1.48,3.59-2.82,5.25-4.01,1.74-1.25,3.27-2.44,4.59-3.57,1.31-1.14,2.42-2.26,3.32-3.38.9-1.12,1.57-2.26,2.01-3.4.44-1.15.66-2.37.66-3.68,0-2.55-.72-4.47-2.16-5.77-1.44-1.3-3.64-1.95-6.6-1.95-5.12,0-10.02,2.03-14.7,6.1v-11.55c5.18-3.35,11.02-5.02,17.52-5.02,3.02,0,5.72.39,8.12,1.18,2.39.79,4.42,1.92,6.08,3.38,1.66,1.47,2.93,3.25,3.8,5.34.87,2.09,1.31,4.42,1.31,7,0,2.74-.42,5.18-1.27,7.31-.85,2.13-1.97,4.07-3.36,5.81-1.4,1.74-3.01,3.34-4.84,4.8-1.83,1.45-3.72,2.86-5.69,4.21-1.33.94-2.61,1.88-3.84,2.8-1.23.93-2.32,1.84-3.26,2.74-.94.9-1.69,1.78-2.24,2.64-.55.86-.83,1.68-.83,2.45Z"/>
    <path class="cls-1" d="M606.95,172.4c-14.17,0-21.26-9.95-21.26-29.86,0-10.32,1.92-18.19,5.75-23.61,3.83-5.41,9.39-8.12,16.67-8.12,13.84,0,20.76,10.12,20.76,30.35,0,10.08-1.89,17.8-5.67,23.17-3.78,5.37-9.2,8.06-16.26,8.06ZM607.53,120.83c-5.67,0-8.51,7.13-8.51,21.39,0,13.43,2.78,20.14,8.35,20.14s8.14-6.92,8.14-20.76-2.66-20.76-7.97-20.76Z"/>
    <path class="cls-1" d="M655,160.48h25.25v10.88h-39.61v-4.48c0-3.05.51-5.78,1.54-8.2,1.02-2.42,2.31-4.59,3.86-6.52,1.55-1.92,3.24-3.63,5.09-5.11,1.84-1.48,3.59-2.82,5.25-4.01,1.74-1.25,3.27-2.44,4.59-3.57,1.31-1.14,2.42-2.26,3.32-3.38.9-1.12,1.57-2.26,2.01-3.4.44-1.15.66-2.37.66-3.68,0-2.55-.72-4.47-2.16-5.77-1.44-1.3-3.64-1.95-6.6-1.95-5.12,0-10.02,2.03-14.7,6.1v-11.55c5.18-3.35,11.02-5.02,17.52-5.02,3.02,0,5.72.39,8.12,1.18,2.39.79,4.42,1.92,6.08,3.38,1.66,1.47,2.93,3.25,3.8,5.34.87,2.09,1.31,4.42,1.31,7,0,2.74-.42,5.18-1.27,7.31-.85,2.13-1.97,4.07-3.36,5.81-1.4,1.74-3.01,3.34-4.84,4.8-1.83,1.45-3.72,2.86-5.69,4.21-1.33.94-2.61,1.88-3.84,2.8-1.23.93-2.32,1.84-3.26,2.74-.94.9-1.69,1.78-2.24,2.64-.55.86-.83,1.68-.83,2.45Z"/>
    <path class="cls-1" d="M737.63,151.56c0,2.94-.51,5.68-1.54,8.22-1.03,2.55-2.45,4.75-4.28,6.62-1.83,1.87-4,3.34-6.52,4.4-2.52,1.06-5.27,1.6-8.26,1.6-3.35,0-6.35-.62-8.99-1.87-2.64-1.25-4.88-3.05-6.71-5.42-1.83-2.37-3.23-5.27-4.19-8.7-.97-3.43-1.45-7.32-1.45-11.67,0-5.12.63-9.76,1.89-13.93,1.26-4.17,3.06-7.73,5.4-10.69,2.34-2.96,5.17-5.25,8.49-6.87,3.32-1.62,7.06-2.43,11.21-2.43,4.59,0,8.17.54,10.71,1.62v10.96c-3.02-1.72-6.31-2.58-9.88-2.58-2.22,0-4.22.43-6.02,1.29-1.8.86-3.34,2.08-4.63,3.65-1.29,1.58-2.3,3.48-3.03,5.71-.73,2.23-1.13,4.71-1.18,7.45h.25c2.82-3.9,6.99-5.85,12.5-5.85,2.46,0,4.69.44,6.69,1.33,1.99.89,3.7,2.14,5.11,3.76,1.41,1.62,2.51,3.56,3.28,5.83.77,2.27,1.16,4.79,1.16,7.56ZM724.8,152.39c0-6.39-2.62-9.59-7.85-9.59-1.19,0-2.27.22-3.24.66s-1.8,1.07-2.49,1.87c-.69.8-1.22,1.75-1.6,2.84-.37,1.1-.56,2.31-.56,3.63,0,1.47.19,2.84.58,4.11.39,1.27.93,2.39,1.64,3.34.71.95,1.54,1.71,2.51,2.26.97.55,2.05.83,3.24.83s2.26-.24,3.22-.73c.96-.48,1.77-1.16,2.45-2.03.68-.87,1.2-1.92,1.56-3.16.36-1.23.54-2.58.54-4.05Z"/>
  </g>
  <g>
    <g>
      <path class="cls-2" d="M1.92,102.97c14.31-13.59,24.23-22.99,26.96-25.42.06-.05,4.14-3.9,5.94-6.51,1.08-1.56,1.52-2.5,3.12-4.57,1.71-2.21,2.73-3.49,4.49-4.57,1.58-.97,1.87-.61,4.33-1.84.5-.25,1.65-.85,4.33-2.72,1.5-1.05,3.48-2.45,6.09-4.65,4.69-3.96,7.04-5.93,7.61-7.61.22-.64.56-1.99,1.71-2.64.4-.23.6-.21,2.22-.8.59-.22.79-.31,1.44-.56,2.1-.82,2.36-.82,3.04-1.12.43-.19,2.58-1.13,3.84-3.2.56-.92.31-1.02,1.28-2.96.58-1.16,1.11-2.01,1.36-2.4.78-1.21,1.46-2.04,2.16-2.88,1.03-1.24,1.99-2.25,2.8-3.04,1.68-1.65,1.79-1.48,3.44-3.04,2.24-2.12,3.36-3.18,4.03-4.63.42-.91.97-1.76,1.42-2.66.31-.62.55-1.14,1.12-1.44.49-.26.77-.13,1.28-.4.62-.33.87-.87,1.12-1.28.25-.41,1.21-1.16,3.12-2.64,1.83-1.42,1.97-1.46,2.48-2,.68-.72.54-.77,1.6-2,1.12-1.3.97-.9,2.08-2.16.69-.78.95-1.17,1.44-1.2.44-.03.49.27,1.28.56.51.19,1.03.23,2.08.32.91.08,1,.03,1.2.16.48.31.44.88.72,1.92.23.88.32.71.8,2.08.76,2.17.41,2.2.88,2.88.72,1.05,1.41.75,2.4,2,.26.32.34.5,1.04,1.92.45.91.92,1.81,1.36,2.72,1.79,3.72,3.16,4.93,4.81,8.81.34.8.58,1.45.72,1.84.9-.04,2.08.04,3.36.48.44.15,1.1.38,1.84.88,1.18.79,1.25,1.38,2.32,2.24.81.65,1.54.94,2.4,1.28.79.31,2.89.88,4.05.84.14,0,.51-.03.88.18.05.03.24.14.54.48.35.4.53.76.55.79.39.76,1.92,2.63,3.66,4.97,2.06,2.77,3.09,4.15,3.39,4.96.66,1.72.46,2.47,1.44,3.96.75,1.15,1.69,1.96,2.37,2.55,1.04.9,1.86,1.4,2.67,1.92,2.55,1.63,1.8,1.36,6.34,4.42,2.46,1.66,3.69,2.49,4.02,2.64,1.25.58,2.43.92,3.51,2.13.39.44.67.88,1.05,1.47.75,1.18.9,1.71,1.53,2.79.29.5.76,1.24,1.45,2.09,7.24,7.66,14.48,15.32,21.72,22.98-40.19,37.97-80.37,75.95-120.56,113.92-23.88-25.28-47.77-50.56-71.65-75.84"/>
      <path class="cls-3" d="M115.47,25.93c-1-2.5-1.49-4.09-1.74-5.2-.09-.42-.29-1.37-1.02-2.28-.32-.4-.65-.68-.87-.84-.07-.15-.16-.39-.21-.69-.08-.45-.02-.79,0-.96.02-.13.17-1.25.15-2.25,0,0-.02-.97.09-1.8.01-.08.04-.27.18-.45.15-.19.35-.26.48-.3.42-.13,1.46-.35,2.86-.58"/>
      <path class="cls-2" d="M79.68,48.62c1.42-3.88,3.17-5.95,4.57-7.13.44-.37,1.12-.89,1.92-1.84,1.45-1.73,1.59-2.88,2.48-4.49,1.55-2.79,2.61-2,4.41-4.81,1.29-2.02.58-2.17,2.56-6.09,1.33-2.62,1.58-2.42,1.92-3.68,0,0,.56-2.05,1.44-2.88.35-.33.62-.48.62-.48.43-.24.68-.22,1.1-.48.25-.15.4-.31.53-.44.37-.38.94-1.22,1.48-3.5.21-.9.23-1.22.57-1.56.42-.42.85-.4,1.31-.62,1-.48,1.31-1.74,1.58-2.68.4-1.4,1.03-3.24,2.12-5.79"/>
      <path class="cls-2" d="M137.9,35.56c.21.75.49,1.79.8,3.04.42,1.66.63,2.49.8,3.36.55,2.77.23,2.74.72,4.24.34,1.05.63,1.47.64,2.4,0,.77-.18,1.11,0,1.84.19.79.51.78.72,1.52.3,1.05-.22,1.48,0,2.35.18.72.7,1.13,1.6,1.81,1.84,1.39,2.73,1.18,3.92,2.24.98.87,1.34,1.86,1.6,2.48.94,2.22,3.92,7.52,9.93,17.38"/>
      <path class="cls-2" d="M72.47,64.55c-.08-4.33.56-7.32,1.2-9.29.24-.74.87-2.55,1.12-5.05.2-1.96.06-3.24,0-3.68-.19-1.46-.33-.86-1.12-4-.13-.51-.33-.8-.56-1.04-1.03-1.1-3.66-.12-4.03.02"/>
      <line class="cls-2" x1="2" y1="102.78" x2="2.08" y2="129.55"/>
      <line class="cls-2" x1="15.36" y1="115.75" x2="2.17" y2="102.95"/>
      <line class="cls-2" x1="2.08" y1="129.33" x2="15.15" y2="115.55"/>
    </g>
    <path class="cls-2" d="M45.45,102.97c14.31-13.59,24.23-22.99,26.96-25.42.06-.05,4.14-3.9,5.94-6.51,1.08-1.56,1.52-2.5,3.12-4.57,1.71-2.21,2.73-3.49,4.49-4.57,1.58-.97,1.87-.61,4.33-1.84.5-.25,1.65-.85,4.33-2.72,1.5-1.05,3.48-2.45,6.09-4.65,4.69-3.96,7.04-5.93,7.61-7.61.22-.64.56-1.99,1.71-2.64.4-.23.6-.21,2.22-.8.59-.22.79-.31,1.44-.56,2.1-.82,2.36-.82,3.04-1.12.43-.19,2.58-1.13,3.84-3.2.56-.92.31-1.02,1.28-2.96.58-1.16,1.11-2.01,1.36-2.4.78-1.21,1.46-2.04,2.16-2.88,1.03-1.24,1.99-2.25,2.8-3.04,1.68-1.65,1.79-1.48,3.44-3.04,2.24-2.12,3.36-3.18,4.03-4.63.42-.91.97-1.76,1.42-2.66.31-.62.55-1.14,1.12-1.44.49-.26.77-.13,1.28-.4.62-.33.87-.87,1.12-1.28.25-.41,1.21-1.16,3.12-2.64,1.83-1.42,1.97-1.46,2.48-2,.68-.72.54-.77,1.6-2,1.12-1.3.97-.9,2.08-2.16.69-.78.95-1.17,1.44-1.2.44-.03.49.27,1.28.56.51.19,1.03.23,2.08.32.91.08,1,.03,1.2.16.48.31.44.88.72,1.92.23.88.32.71.8,2.08.76,2.17.41,2.2.88,2.88.72,1.05,1.41.75,2.4,2,.26.32.34.5,1.04,1.92.45.91.92,1.81,1.36,2.72,1.79,3.72,3.16,4.93,4.81,8.81.34.8.58,1.45.72,1.84.9-.04,2.08.04,3.36.48.44.15,1.1.38,1.84.88,1.18.79,1.25,1.38,2.32,2.24.81.65,1.54.94,2.4,1.28.79.31,2.89.88,4.05.84.14,0,.51-.03.88.18.05.03.24.14.54.48.35.4.53.76.55.79.39.76,1.92,2.63,3.66,4.97,2.06,2.77,3.09,4.15,3.39,4.96.66,1.72.46,2.47,1.44,3.96.75,1.15,1.69,1.96,2.37,2.55,1.04.9,1.86,1.4,2.67,1.92,2.55,1.63,1.8,1.36,6.34,4.42,2.46,1.66,3.69,2.49,4.02,2.64,1.25.58,2.43.92,3.51,2.13.39.44.67.88,1.05,1.47.75,1.18.9,1.71,1.53,2.79.29.5.76,1.24,1.45,2.09,7.24,7.66,14.48,15.32,21.72,22.98-40.19,37.97-80.37,75.95-120.56,113.92-23.88-25.28-47.77-50.56-71.65-75.84"/>
    <path class="cls-3" d="M159,25.93c-1-2.5-1.49-4.09-1.74-5.2-.09-.42-.29-1.37-1.02-2.28-.32-.4-.65-.68-.87-.84-.07-.15-.16-.39-.21-.69-.08-.45-.02-.79,0-.96.02-.13.17-1.25.15-2.25,0,0-.02-.97.09-1.8.01-.08.04-.27.18-.45.15-.19.35-.26.48-.3.42-.13,1.46-.35,2.86-.58"/>
    <path class="cls-2" d="M123.21,48.62c1.42-3.88,3.17-5.95,4.57-7.13.44-.37,1.12-.89,1.92-1.84,1.45-1.73,1.59-2.88,2.48-4.49,1.55-2.79,2.61-2,4.41-4.81,1.29-2.02.58-2.17,2.56-6.09,1.33-2.62,1.58-2.42,1.92-3.68,0,0,.56-2.05,1.44-2.88.35-.33.62-.48.62-.48.43-.24.68-.22,1.1-.48.25-.15.4-.31.53-.44.37-.38.94-1.22,1.48-3.5.21-.9.23-1.22.57-1.56.42-.42.85-.4,1.31-.62,1-.48,1.31-1.74,1.58-2.68.4-1.4,1.03-3.24,2.12-5.79"/>
    <path class="cls-2" d="M168.45,27.27c.21.75.49,1.79.8,3.04.42,1.66.63,2.49.8,3.36.55,2.77.23,2.74.72,4.24.34,1.05.63,1.47.64,2.4,0,.77-.18,1.11,0,1.84.19.79.51.78.72,1.52.3,1.05-.22,1.48,0,2.35.18.72.7,1.13,1.6,1.81,1.84,1.39,2.73,1.18,3.92,2.24.98.87,1.34,1.86,1.6,2.48.94,2.22,3.92,7.52,9.93,17.38"/>
    <path class="cls-2" d="M116,64.55c-.08-4.33.56-7.32,1.2-9.29.24-.74.87-2.55,1.12-5.05.2-1.96.06-3.24,0-3.68-.19-1.46-.33-.86-1.12-4-.13-.51-.33-.8-.56-1.04-1.03-1.1-3.66-.12-4.03.02"/>
    <line class="cls-2" x1="45.53" y1="102.78" x2="45.61" y2="129.55"/>
    <line class="cls-2" x1="58.89" y1="115.75" x2="45.7" y2="102.95"/>
    <line class="cls-2" x1="45.61" y1="129.33" x2="58.69" y2="115.55"/>
  </g>
</svg>