<?xml version="1.0" encoding="UTF-8"?>
<svg id="Capa_1" data-name="Capa 1" xmlns="http://www.w3.org/2000/svg" viewBox="0 0 1153.42 208.06">
  <defs>
    <style>
      .cls-1 {
        fill: #3a5ba6;
      }

      .cls-2 {
        fill: #fff;
      }

      .cls-2, .cls-3 {
        stroke: #3a5ba6;
        stroke-miterlimit: 10;
        stroke-width: 4px;
      }

      .cls-3 {
        fill: none;
      }
    </style>
  </defs>
  <g>
    <path class="cls-1" d="M267.93,158.08v-23.57c4.27,3.58,8.91,6.27,13.92,8.07,5.01,1.79,10.07,2.69,15.18,2.69,2.99,0,5.61-.27,7.84-.81s4.1-1.29,5.6-2.25c1.5-.96,2.61-2.09,3.35-3.39.73-1.3,1.1-2.71,1.1-4.24,0-2.06-.59-3.9-1.77-5.53-1.18-1.62-2.79-3.12-4.82-4.49-2.04-1.37-4.46-2.7-7.26-3.98-2.8-1.28-5.82-2.58-9.06-3.91-8.25-3.44-14.41-7.63-18.46-12.6-4.05-4.96-6.08-10.95-6.08-17.98,0-5.5,1.1-10.23,3.32-14.18,2.21-3.95,5.22-7.21,9.02-9.76,3.81-2.55,8.21-4.43,13.22-5.63,5.01-1.2,10.31-1.81,15.91-1.81s10.38.33,14.62.99c4.25.66,8.17,1.68,11.75,3.06v22.03c-1.77-1.23-3.7-2.31-5.78-3.24-2.09-.93-4.24-1.71-6.45-2.32-2.21-.61-4.41-1.07-6.59-1.36-2.19-.29-4.26-.44-6.22-.44-2.7,0-5.16.26-7.37.77-2.21.51-4.08,1.24-5.6,2.17-1.52.93-2.7,2.05-3.54,3.35-.84,1.3-1.25,2.76-1.25,4.39,0,1.77.47,3.35,1.4,4.75.94,1.4,2.26,2.73,3.98,3.98,1.72,1.25,3.8,2.48,6.26,3.68,2.46,1.21,5.23,2.44,8.32,3.72,4.22,1.77,8.02,3.65,11.38,5.64,3.36,1.99,6.25,4.24,8.66,6.74,2.41,2.5,4.25,5.37,5.53,8.58,1.28,3.22,1.92,6.96,1.92,11.24,0,5.89-1.12,10.84-3.35,14.84-2.24,4-5.27,7.24-9.1,9.72-3.83,2.48-8.29,4.26-13.37,5.34-5.08,1.08-10.45,1.62-16.1,1.62s-11.31-.49-16.54-1.47c-5.23-.98-9.76-2.46-13.59-4.42Z"/>
    <path class="cls-1" d="M362.16,158.08v-23.57c4.27,3.58,8.91,6.27,13.92,8.07s10.07,2.69,15.18,2.69c2.99,0,5.61-.27,7.84-.81s4.1-1.29,5.6-2.25c1.5-.96,2.61-2.09,3.35-3.39.73-1.3,1.1-2.71,1.1-4.24,0-2.06-.59-3.9-1.77-5.53-1.18-1.62-2.79-3.12-4.82-4.49-2.04-1.37-4.46-2.7-7.26-3.98s-5.82-2.58-9.06-3.91c-8.25-3.44-14.41-7.63-18.46-12.6-4.05-4.96-6.08-10.95-6.08-17.98,0-5.5,1.1-10.23,3.32-14.18,2.21-3.95,5.22-7.21,9.02-9.76,3.81-2.55,8.21-4.43,13.22-5.63,5.01-1.2,10.31-1.81,15.91-1.81s10.38.33,14.62.99c4.25.66,8.17,1.68,11.75,3.06v22.03c-1.77-1.23-3.7-2.31-5.78-3.24-2.09-.93-4.24-1.71-6.45-2.32-2.21-.61-4.41-1.07-6.59-1.36s-4.26-.44-6.22-.44c-2.7,0-5.16.26-7.37.77-2.21.51-4.08,1.24-5.6,2.17-1.52.93-2.7,2.05-3.54,3.35-.84,1.3-1.25,2.76-1.25,4.39,0,1.77.47,3.35,1.4,4.75.94,1.4,2.26,2.73,3.98,3.98,1.72,1.25,3.8,2.48,6.26,3.68,2.46,1.21,5.23,2.44,8.32,3.72,4.22,1.77,8.02,3.65,11.38,5.64,3.36,1.99,6.25,4.24,8.66,6.74,2.41,2.5,4.25,5.37,5.53,8.58,1.28,3.22,1.92,6.96,1.92,11.24,0,5.89-1.12,10.84-3.35,14.84-2.24,4-5.27,7.24-9.1,9.72-3.83,2.48-8.29,4.26-13.37,5.34-5.08,1.08-10.45,1.62-16.1,1.62s-11.31-.49-16.54-1.47c-5.23-.98-9.76-2.46-13.59-4.42Z"/>
    <path class="cls-1" d="M461.25,162.13V56.49h37.42c37.52,0,56.28,17.16,56.28,51.5,0,16.45-5.12,29.59-15.36,39.41-10.24,9.82-23.88,14.73-40.92,14.73h-37.42ZM485.05,75.87v66.96h11.79c10.31,0,18.41-3.09,24.28-9.28,5.87-6.19,8.8-14.61,8.8-25.27,0-10.07-2.91-17.99-8.73-23.76-5.82-5.77-13.98-8.66-24.49-8.66h-11.64Z"/>
    <path class="cls-1" d="M672.77,162.13h-25.93l-7.52-23.5h-37.57l-7.44,23.5h-25.78l38.46-105.64h28.21l37.58,105.64ZM633.87,120.36l-11.35-35.51c-.83-2.65-1.42-5.82-1.77-9.5h-.59c-.24,3.09-.86,6.16-1.84,9.21l-11.49,35.81h27.04Z"/>
    <path class="cls-1" d="M813.94,142.83h44.79v19.3h-70.28v-7.96c0-5.4.91-10.25,2.73-14.55,1.82-4.3,4.1-8.15,6.85-11.57,2.75-3.41,5.76-6.43,9.02-9.06,3.27-2.63,6.37-5,9.32-7.11,3.09-2.21,5.81-4.32,8.14-6.34,2.33-2.01,4.3-4.02,5.89-6,1.59-1.99,2.79-4,3.57-6.04.78-2.04,1.18-4.21,1.18-6.52,0-4.52-1.28-7.93-3.83-10.24-2.56-2.31-6.46-3.46-11.72-3.46-9.09,0-17.78,3.61-26.08,10.83v-20.48c9.18-5.94,19.55-8.91,31.09-8.91,5.35,0,10.15.7,14.4,2.1,4.25,1.4,7.85,3.4,10.79,6,2.95,2.6,5.19,5.76,6.74,9.47,1.55,3.71,2.32,7.84,2.32,12.41,0,4.86-.75,9.18-2.24,12.97-1.5,3.78-3.49,7.22-5.97,10.31-2.48,3.09-5.34,5.93-8.58,8.51-3.24,2.58-6.6,5.07-10.09,7.48-2.36,1.67-4.63,3.33-6.82,4.97-2.19,1.65-4.11,3.27-5.78,4.86-1.67,1.6-2.99,3.16-3.97,4.68-.98,1.52-1.47,2.97-1.47,4.35Z"/>
    <path class="cls-1" d="M921.57,163.98c-25.15,0-37.72-17.66-37.72-52.97,0-18.32,3.4-32.28,10.2-41.88,6.8-9.6,16.66-14.4,29.58-14.4,24.55,0,36.83,17.95,36.83,53.85,0,17.88-3.35,31.58-10.06,41.1-6.71,9.53-16.32,14.3-28.84,14.3ZM922.6,72.47c-10.07,0-15.1,12.65-15.1,37.94,0,23.82,4.94,35.73,14.81,35.73s14.44-12.28,14.44-36.83-4.71-36.83-14.14-36.83Z"/>
    <path class="cls-1" d="M1006.82,142.83h44.79v19.3h-70.28v-7.96c0-5.4.91-10.25,2.73-14.55,1.82-4.3,4.1-8.15,6.85-11.57,2.75-3.41,5.76-6.43,9.02-9.06,3.27-2.63,6.37-5,9.32-7.11,3.09-2.21,5.81-4.32,8.14-6.34,2.33-2.01,4.3-4.02,5.89-6,1.59-1.99,2.79-4,3.57-6.04.78-2.04,1.18-4.21,1.18-6.52,0-4.52-1.28-7.93-3.83-10.24-2.56-2.31-6.46-3.46-11.72-3.46-9.09,0-17.78,3.61-26.08,10.83v-20.48c9.18-5.94,19.55-8.91,31.09-8.91,5.35,0,10.15.7,14.4,2.1,4.25,1.4,7.85,3.4,10.79,6,2.95,2.6,5.19,5.76,6.74,9.47,1.55,3.71,2.32,7.84,2.32,12.41,0,4.86-.75,9.18-2.24,12.97-1.5,3.78-3.49,7.22-5.97,10.31-2.48,3.09-5.34,5.93-8.58,8.51-3.24,2.58-6.6,5.07-10.09,7.48-2.36,1.67-4.63,3.33-6.82,4.97-2.19,1.65-4.11,3.27-5.78,4.86-1.67,1.6-2.99,3.16-3.97,4.68-.98,1.52-1.47,2.97-1.47,4.35Z"/>
    <path class="cls-1" d="M1153.42,126.99c0,5.21-.91,10.07-2.72,14.59-1.82,4.52-4.35,8.43-7.59,11.75-3.24,3.31-7.1,5.92-11.56,7.81-4.47,1.89-9.36,2.84-14.66,2.84-5.94,0-11.26-1.11-15.95-3.32-4.69-2.21-8.66-5.41-11.9-9.61-3.24-4.2-5.72-9.34-7.44-15.43-1.72-6.09-2.58-12.99-2.58-20.7,0-9.08,1.12-17.32,3.35-24.72,2.23-7.39,5.43-13.71,9.58-18.97,4.15-5.26,9.17-9.32,15.07-12.19,5.89-2.87,12.52-4.31,19.89-4.31,8.15,0,14.49.96,19.01,2.87v19.45c-5.35-3.05-11.2-4.57-17.53-4.57-3.93,0-7.49.76-10.68,2.29-3.19,1.52-5.93,3.68-8.22,6.48-2.28,2.8-4.08,6.18-5.38,10.13-1.3,3.95-2,8.36-2.1,13.22h.44c5.01-6.92,12.4-10.39,22.17-10.39,4.37,0,8.33.78,11.86,2.36,3.54,1.57,6.56,3.79,9.06,6.67,2.51,2.87,4.45,6.32,5.82,10.35,1.37,4.03,2.06,8.49,2.06,13.4ZM1130.66,128.46c0-11.34-4.64-17.02-13.93-17.02-2.11,0-4.03.39-5.75,1.18-1.72.78-3.19,1.89-4.42,3.32-1.23,1.42-2.17,3.1-2.84,5.04-.66,1.94-.99,4.09-.99,6.45,0,2.6.34,5.03,1.03,7.29.69,2.26,1.66,4.24,2.91,5.93,1.25,1.69,2.74,3.03,4.46,4.01,1.72.98,3.64,1.47,5.75,1.47s4.02-.43,5.71-1.29c1.7-.86,3.14-2.06,4.35-3.61,1.2-1.55,2.12-3.41,2.76-5.6.64-2.19.96-4.58.96-7.19Z"/>
  </g>
  <g>
    <g>
      <path class="cls-2" d="M1.92,102.97c14.31-13.59,24.23-22.99,26.96-25.42.06-.05,4.14-3.9,5.94-6.51,1.08-1.56,1.52-2.5,3.12-4.57,1.71-2.21,2.73-3.49,4.49-4.57,1.58-.97,1.87-.61,4.33-1.84.5-.25,1.65-.85,4.33-2.72,1.5-1.05,3.48-2.45,6.09-4.65,4.69-3.96,7.04-5.93,7.61-7.61.22-.64.56-1.99,1.71-2.64.4-.23.6-.21,2.22-.8.59-.22.79-.31,1.44-.56,2.1-.82,2.36-.82,3.04-1.12.43-.19,2.58-1.13,3.84-3.2.56-.92.31-1.02,1.28-2.96.58-1.16,1.11-2.01,1.36-2.4.78-1.21,1.46-2.04,2.16-2.88,1.03-1.24,1.99-2.25,2.8-3.04,1.68-1.65,1.79-1.48,3.44-3.04,2.24-2.12,3.36-3.18,4.03-4.63.42-.91.97-1.76,1.42-2.66.31-.62.55-1.14,1.12-1.44.49-.26.77-.13,1.28-.4.62-.33.87-.87,1.12-1.28.25-.41,1.21-1.16,3.12-2.64,1.83-1.42,1.97-1.46,2.48-2,.68-.72.54-.77,1.6-2,1.12-1.3.97-.9,2.08-2.16.69-.78.95-1.17,1.44-1.2.44-.03.49.27,1.28.56.51.19,1.03.23,2.08.32.91.08,1,.03,1.2.16.48.31.44.88.72,1.92.23.88.32.71.8,2.08.76,2.17.41,2.2.88,2.88.72,1.05,1.41.75,2.4,2,.26.32.34.5,1.04,1.92.45.91.92,1.81,1.36,2.72,1.79,3.72,3.16,4.93,4.81,8.81.34.8.58,1.45.72,1.84.9-.04,2.08.04,3.36.48.44.15,1.1.38,1.84.88,1.18.79,1.25,1.38,2.32,2.24.81.65,1.54.94,2.4,1.28.79.31,2.89.88,4.05.84.14,0,.51-.03.88.18.05.03.24.14.54.48.35.4.53.76.55.79.39.76,1.92,2.63,3.66,4.97,2.06,2.77,3.09,4.15,3.39,4.96.66,1.72.46,2.47,1.44,3.96.75,1.15,1.69,1.96,2.37,2.55,1.04.9,1.86,1.4,2.67,1.92,2.55,1.63,1.8,1.36,6.34,4.42,2.46,1.66,3.69,2.49,4.02,2.64,1.25.58,2.43.92,3.51,2.13.39.44.67.88,1.05,1.47.75,1.18.9,1.71,1.53,2.79.29.5.76,1.24,1.45,2.09,7.24,7.66,14.48,15.32,21.72,22.98-40.19,37.97-80.37,75.95-120.56,113.92-23.88-25.28-47.77-50.56-71.65-75.84"/>
      <path class="cls-3" d="M115.47,25.93c-1-2.5-1.49-4.09-1.74-5.2-.09-.42-.29-1.37-1.02-2.28-.32-.4-.65-.68-.87-.84-.07-.15-.16-.39-.21-.69-.08-.45-.02-.79,0-.96.02-.13.17-1.25.15-2.25,0,0-.02-.97.09-1.8.01-.08.04-.27.18-.45.15-.19.35-.26.48-.3.42-.13,1.46-.35,2.86-.58"/>
      <path class="cls-2" d="M79.68,48.62c1.42-3.88,3.17-5.95,4.57-7.13.44-.37,1.12-.89,1.92-1.84,1.45-1.73,1.59-2.88,2.48-4.49,1.55-2.79,2.61-2,4.41-4.81,1.29-2.02.58-2.17,2.56-6.09,1.33-2.62,1.58-2.42,1.92-3.68,0,0,.56-2.05,1.44-2.88.35-.33.62-.48.62-.48.43-.24.68-.22,1.1-.48.25-.15.4-.31.53-.44.37-.38.94-1.22,1.48-3.5.21-.9.23-1.22.57-1.56.42-.42.85-.4,1.31-.62,1-.48,1.31-1.74,1.58-2.68.4-1.4,1.03-3.24,2.12-5.79"/>
      <path class="cls-2" d="M137.9,35.56c.21.75.49,1.79.8,3.04.42,1.66.63,2.49.8,3.36.55,2.77.23,2.74.72,4.24.34,1.05.63,1.47.64,2.4,0,.77-.18,1.11,0,1.84.19.79.51.78.72,1.52.3,1.05-.22,1.48,0,2.35.18.72.7,1.13,1.6,1.81,1.84,1.39,2.73,1.18,3.92,2.24.98.87,1.34,1.86,1.6,2.48.94,2.22,3.92,7.52,9.93,17.38"/>
      <path class="cls-2" d="M72.47,64.55c-.08-4.33.56-7.32,1.2-9.29.24-.74.87-2.55,1.12-5.05.2-1.96.06-3.24,0-3.68-.19-1.46-.33-.86-1.12-4-.13-.51-.33-.8-.56-1.04-1.03-1.1-3.66-.12-4.03.02"/>
      <line class="cls-2" x1="2" y1="102.78" x2="2.08" y2="129.55"/>
      <line class="cls-2" x1="15.36" y1="115.75" x2="2.17" y2="102.95"/>
      <line class="cls-2" x1="2.08" y1="129.33" x2="15.15" y2="115.55"/>
    </g>
    <path class="cls-2" d="M45.45,102.97c14.31-13.59,24.23-22.99,26.96-25.42.06-.05,4.14-3.9,5.94-6.51,1.08-1.56,1.52-2.5,3.12-4.57,1.71-2.21,2.73-3.49,4.49-4.57,1.58-.97,1.87-.61,4.33-1.84.5-.25,1.65-.85,4.33-2.72,1.5-1.05,3.48-2.45,6.09-4.65,4.69-3.96,7.04-5.93,7.61-7.61.22-.64.56-1.99,1.71-2.64.4-.23.6-.21,2.22-.8.59-.22.79-.31,1.44-.56,2.1-.82,2.36-.82,3.04-1.12.43-.19,2.58-1.13,3.84-3.2.56-.92.31-1.02,1.28-2.96.58-1.16,1.11-2.01,1.36-2.4.78-1.21,1.46-2.04,2.16-2.88,1.03-1.24,1.99-2.25,2.8-3.04,1.68-1.65,1.79-1.48,3.44-3.04,2.24-2.12,3.36-3.18,4.03-4.63.42-.91.97-1.76,1.42-2.66.31-.62.55-1.14,1.12-1.44.49-.26.77-.13,1.28-.4.62-.33.87-.87,1.12-1.28.25-.41,1.21-1.16,3.12-2.64,1.83-1.42,1.97-1.46,2.48-2,.68-.72.54-.77,1.6-2,1.12-1.3.97-.9,2.08-2.16.69-.78.95-1.17,1.44-1.2.44-.03.49.27,1.28.56.51.19,1.03.23,2.08.32.91.08,1,.03,1.2.16.48.31.44.88.72,1.92.23.88.32.71.8,2.08.76,2.17.41,2.2.88,2.88.72,1.05,1.41.75,2.4,2,.26.32.34.5,1.04,1.92.45.91.92,1.81,1.36,2.72,1.79,3.72,3.16,4.93,4.81,8.81.34.8.58,1.45.72,1.84.9-.04,2.08.04,3.36.48.44.15,1.1.38,1.84.88,1.18.79,1.25,1.38,2.32,2.24.81.65,1.54.94,2.4,1.28.79.31,2.89.88,4.05.84.14,0,.51-.03.88.18.05.03.24.14.54.48.35.4.53.76.55.79.39.76,1.92,2.63,3.66,4.97,2.06,2.77,3.09,4.15,3.39,4.96.66,1.72.46,2.47,1.44,3.96.75,1.15,1.69,1.96,2.37,2.55,1.04.9,1.86,1.4,2.67,1.92,2.55,1.63,1.8,1.36,6.34,4.42,2.46,1.66,3.69,2.49,4.02,2.64,1.25.58,2.43.92,3.51,2.13.39.44.67.88,1.05,1.47.75,1.18.9,1.71,1.53,2.79.29.5.76,1.24,1.45,2.09,7.24,7.66,14.48,15.32,21.72,22.98-40.19,37.97-80.37,75.95-120.56,113.92-23.88-25.28-47.77-50.56-71.65-75.84"/>
    <path class="cls-3" d="M159,25.93c-1-2.5-1.49-4.09-1.74-5.2-.09-.42-.29-1.37-1.02-2.28-.32-.4-.65-.68-.87-.84-.07-.15-.16-.39-.21-.69-.08-.45-.02-.79,0-.96.02-.13.17-1.25.15-2.25,0,0-.02-.97.09-1.8.01-.08.04-.27.18-.45.15-.19.35-.26.48-.3.42-.13,1.46-.35,2.86-.58"/>
    <path class="cls-2" d="M123.21,48.62c1.42-3.88,3.17-5.95,4.57-7.13.44-.37,1.12-.89,1.92-1.84,1.45-1.73,1.59-2.88,2.48-4.49,1.55-2.79,2.61-2,4.41-4.81,1.29-2.02.58-2.17,2.56-6.09,1.33-2.62,1.58-2.42,1.92-3.68,0,0,.56-2.05,1.44-2.88.35-.33.62-.48.62-.48.43-.24.68-.22,1.1-.48.25-.15.4-.31.53-.44.37-.38.94-1.22,1.48-3.5.21-.9.23-1.22.57-1.56.42-.42.85-.4,1.31-.62,1-.48,1.31-1.74,1.58-2.68.4-1.4,1.03-3.24,2.12-5.79"/>
    <path class="cls-2" d="M168.45,27.27c.21.75.49,1.79.8,3.04.42,1.66.63,2.49.8,3.36.55,2.77.23,2.74.72,4.24.34,1.05.63,1.47.64,2.4,0,.77-.18,1.11,0,1.84.19.79.51.78.72,1.52.3,1.05-.22,1.48,0,2.35.18.72.7,1.13,1.6,1.81,1.84,1.39,2.73,1.18,3.92,2.24.98.87,1.34,1.86,1.6,2.48.94,2.22,3.92,7.52,9.93,17.38"/>
    <path class="cls-2" d="M116,64.55c-.08-4.33.56-7.32,1.2-9.29.24-.74.87-2.55,1.12-5.05.2-1.96.06-3.24,0-3.68-.19-1.46-.33-.86-1.12-4-.13-.51-.33-.8-.56-1.04-1.03-1.1-3.66-.12-4.03.02"/>
    <line class="cls-2" x1="45.53" y1="102.78" x2="45.61" y2="129.55"/>
    <line class="cls-2" x1="58.89" y1="115.75" x2="45.7" y2="102.95"/>
    <line class="cls-2" x1="45.61" y1="129.33" x2="58.69" y2="115.55"/>
  </g>
</svg>